<?xml version="1.0" encoding="UTF-8"?>
<svg xmlns="http://www.w3.org/2000/svg" version="1.1" viewBox="0 0 499.3 68.3">
  <defs>
    <style>
      .cls-1, .cls-2 {
        fill: #fff;
      }

      .cls-2, .cls-3, .cls-4 {
        display: none;
      }

      .cls-3 {
        fill: #2e3532;
        stroke: #fff;
        stroke-miterlimit: 10;
        stroke-width: 4px;
      }

      .cls-5 {
        fill: #d35;
      }

      .cls-6 {
        fill: #ecd4ac;
      }
    </style>
  </defs>
  <!-- Generator: Adobe Illustrator 28.6.0, SVG Export Plug-In . SVG Version: 1.2.0 Build 709)  -->
  <g>
    <g id="Livello_1">
      <g>
        <g id="Livello_2" class="cls-4">
          <rect class="cls-5" x="-40" y="-26.6" width="557.8" height="115.1"/>
        </g>
        <g id="Livello_1-2" data-name="Livello_1">
          <g id="logogram">
            <g>
              <path class="cls-5" d="M46.1,48.7c-10.2,0-18.6-8.3-18.6-18.6s8.3-18.6,18.6-18.6h21.7c10.2,0,18.6,8.3,18.6,18.6v18.6h-40.3Z"/>
              <path class="cls-1" d="M67.8,13.5c9.1,0,16.6,7.4,16.6,16.6v16.6h-38.3c-9.1,0-16.6-7.4-16.6-16.6s7.4-16.6,16.6-16.6h21.7M67.8,9.5h-21.7c-11.3,0-20.6,9.2-20.6,20.6s9.2,20.6,20.6,20.6h42.3v-20.6c0-11.3-9.2-20.6-20.6-20.6h0Z"/>
            </g>
            <path class="cls-6" d="M67.8,19.8h-21.7c-5.7,0-10.4,4.6-10.4,10.4s4.6,10.4,10.4,10.4h21.7c5.7,0,10.4-4.6,10.4-10.4s-4.6-10.4-10.4-10.4Z"/>
            <path d="M46.1,35.3c2.9,0,5.2-2.3,5.2-5.2s-2.3-5.2-5.2-5.2-5.2,2.3-5.2,5.2,2.3,5.2,5.2,5.2Z"/>
            <path class="cls-1" d="M44,29.1c.6,0,1-.5,1-1s-.5-1-1-1-1,.5-1,1,.5,1,1,1Z"/>
            <path d="M68.8,35.3c2.9,0,5.2-2.3,5.2-5.2s-2.3-5.2-5.2-5.2-5.2,2.3-5.2,5.2,2.3,5.2,5.2,5.2Z"/>
            <path class="cls-1" d="M66.8,29.1c.6,0,1-.5,1-1s-.5-1-1-1-1,.5-1,1,.5,1,1,1Z"/>
          </g>
          <g id="logotype">
            <rect class="cls-2" x="118.8" y="16.2" width="26.9" height="26.9"/>
            <rect class="cls-2" x="273" y="19.6" width="16.3" height="27.4"/>
            <rect class="cls-2" x="203.2" y="25.8" width="33" height="18.9"/>
            <rect class="cls-2" x="157.6" y="27.3" width="12.9" height="27.4"/>
            <rect class="cls-2" x="98.6" y="16.1" width="55" height="25.7"/>
            <rect class="cls-2" x="296.3" y="26.8" width="183.5" height="16.8"/>
            <rect class="cls-2" x="99.1" y="21.2" width="16.9" height="17.4"/>
            <path class="cls-1" d="M95.6,34.4v16.3h-8.2V9.9h28.6v8.2h-20.5v8.2h12.3v8.2h-12.3,0ZM142.6,50.8l-2.6-3.6c-.6.6-1.3,1.1-2,1.6s-1.5.9-2.2,1.3c-.8.4-1.6.7-2.4.9-.8.2-1.7.3-2.5.3h0c-1.9,0-3.7-.3-5.3-1-1.7-.7-3.1-1.6-4.3-2.8-1.3-1.2-2.2-2.7-2.9-4.5-.7-1.8-1.1-3.7-1.1-5.9h0v-16.9h7.8v16.9c0,1,.2,2,.5,2.8s.7,1.5,1.3,2,1.2,1,1.9,1.3,1.5.4,2.3.4h0c.8,0,1.5-.2,2.3-.6.7-.4,1.3-.9,1.9-1.5s1-1.3,1.3-2.1.5-1.6.5-2.4h0v-16.9h7.8v30.6h-2.3ZM158.2,33.3v17.5h-7.8v-30.6h1.9l2.6,3c1.3-1.1,2.7-2,4.3-2.7,1.6-.6,3.3-.9,5-.9h0c1.9,0,3.6.4,5.3,1.1s3.1,1.7,4.3,2.9c1.2,1.3,2.2,2.7,2.9,4.4.7,1.7,1.1,3.4,1.1,5.3h0v17.5h-7.8v-17.5c0-.8-.2-1.6-.5-2.3-.3-.7-.7-1.3-1.3-1.9-.5-.5-1.2-1-1.8-1.3-.7-.3-1.5-.4-2.3-.4h0c-.8,0-1.6.1-2.3.4s-1.4.7-1.9,1.3c-.5.5-1,1.1-1.3,1.9-.3.7-.5,1.5-.5,2.3h.1ZM191.1,46.9v3.9h-7.8V8.1h7.8v26.9l11.6-14.7h9l-10.1,12.7,10.1,17.8h-9l-6.2-11.1-5.4,7.2h0ZM243.3,35.2h0c0,2.3-.4,4.4-1.2,6.4s-1.9,3.7-3.3,5.1c-1.4,1.4-3.1,2.6-4.9,3.4-1.9.8-6.1,1.2-6.1,1.2-2.1,0-4.2-.4-6.1-1.2-1.9-.8-3.6-2-5-3.4s-2.5-3.1-3.3-5.1-1.2-4.1-1.2-6.4h0c0-2.3.4-4.5,1.2-6.5s1.9-3.7,3.3-5.1c1.4-1.4,3.1-2.6,5-3.4s3.9-1.2,6.1-1.2h0c2.2,0,4.2.4,6.1,1.2,1.9.8,3.5,1.9,4.9,3.3s2.5,3.1,3.3,5.1,1.2,4.2,1.2,6.6ZM235.5,35.2h0c0-1.3-.2-2.4-.6-3.4-.4-1-1-1.9-1.7-2.6s-1.5-1.3-2.5-1.7c-.9-.4-1.9-.6-3-.6h0c-1.1,0-2.1.2-3,.6s-1.8,1-2.4,1.7c-.7.7-1.2,1.6-1.6,2.6-.4,1-.6,2.2-.6,3.4h0c0,1.2.2,2.3.6,3.3.4,1,.9,1.9,1.6,2.6.7.7,1.5,1.3,2.4,1.8.9.4,1.9.7,3,.7h0c1.1,0,2.1-.2,3-.6.9-.4,1.8-1,2.5-1.7s1.3-1.6,1.7-2.6.6-2.2.6-3.4h0ZM297.5,38.5h0c0,1.7-.3,3.3-1,4.8-.6,1.5-1.5,2.8-2.6,3.9-1.1,1.1-2.4,2-3.9,2.7-1.5.6-3.1,1-4.8,1h-20.5V9.9h20.5c1.7,0,3.3.3,4.8,1,1.5.6,2.8,1.5,3.9,2.6s2,2.4,2.6,3.9c.7,1.5,1,3.1,1,4.8h0c0,.8-.1,1.5-.3,2.3-.2.8-.5,1.6-.9,2.3-.4.7-.8,1.4-1.4,2-.5.6-1.1,1.1-1.8,1.5h0c.7.4,1.3.8,1.8,1.5.5.6,1,1.3,1.4,2s.7,1.5.9,2.3c.2.8.3,1.6.3,2.4ZM273,34.4v8.2h12.3c.6,0,1.1,0,1.6-.3s.9-.5,1.3-.9.7-.8.9-1.3c.2-.5.3-1,.3-1.6h0c0-.6-.1-1.1-.3-1.6-.2-.5-.5-.9-.9-1.3-.4-.4-.8-.7-1.3-.9s-1-.3-1.6-.3c0,0-12.3,0-12.3,0ZM273,18.1v8.2h12.3c.6,0,1.1-.1,1.6-.3.5-.2.9-.5,1.3-.9s.7-.8.9-1.3c.2-.5.3-1,.3-1.6h0c0-.6-.1-1.1-.3-1.6-.2-.5-.5-.9-.9-1.3s-.8-.7-1.3-.9c-.5-.2-1-.3-1.6-.3,0,0-12.3,0-12.3,0ZM332.4,35.2h0c0,2.3-.4,4.4-1.2,6.4-.8,2-1.9,3.7-3.3,5.1-1.4,1.4-3.1,2.6-4.9,3.4-1.9.8-3.9,1.2-6.1,1.2h0c-2.1,0-4.2-.4-6.1-1.2s-3.6-2-5-3.4-2.5-3.1-3.3-5.1-1.2-4.1-1.2-6.4h0c0-2.3.4-4.5,1.2-6.5.8-2,1.9-3.7,3.3-5.1s3.1-2.6,5-3.4,3.9-1.2,6.1-1.2h0c2.2,0,4.2.4,6.1,1.2,1.9.8,3.5,1.9,4.9,3.3s2.5,3.1,3.3,5.1,1.2,4.2,1.2,6.6ZM324.6,35.2h0c0-1.3-.2-2.4-.6-3.4-.4-1-1-1.9-1.7-2.6s-1.5-1.3-2.5-1.7c-.9-.4-1.9-.6-3-.6h0c-1.1,0-2.1.2-3,.6s-1.8,1-2.4,1.7c-.7.7-1.2,1.6-1.6,2.6-.4,1-.6,2.2-.6,3.4h0c0,1.2.2,2.3.6,3.3s.9,1.9,1.6,2.6c.7.7,1.5,1.3,2.4,1.8.9.4,1.9.7,3,.7h0c1.1,0,2.1-.2,3-.6.9-.4,1.8-1,2.5-1.7s1.3-1.6,1.7-2.6c.4-1,.6-2.2.6-3.4h0ZM366.3,35.2h0c0,2.3-.4,4.4-1.2,6.4-.8,2-1.9,3.7-3.3,5.1-1.4,1.4-3.1,2.6-5,3.4-1.9.8-3.9,1.2-6.1,1.2h0c-2.1,0-4.2-.4-6.1-1.2s-3.5-2-5-3.4c-1.4-1.4-2.5-3.1-3.4-5.1-.8-2-1.2-4.1-1.2-6.4h0c0-2.3.4-4.5,1.2-6.5.8-2,1.9-3.7,3.4-5.1,1.4-1.4,3.1-2.6,5-3.4s3.9-1.2,6.1-1.2h0c2.2,0,4.2.4,6.1,1.2s3.5,1.9,5,3.3c1.4,1.4,2.5,3.1,3.3,5.1s1.2,4.2,1.2,6.6ZM358.4,35.2h0c0-1.3-.2-2.4-.6-3.4-.4-1-1-1.9-1.7-2.6s-1.5-1.3-2.5-1.7c-.9-.4-1.9-.6-3-.6h0c-1.1,0-2.1.2-3,.6s-1.8,1-2.5,1.7-1.2,1.6-1.6,2.6c-.4,1-.6,2.2-.6,3.4h0c0,1.2.2,2.3.6,3.3s.9,1.9,1.6,2.6,1.5,1.3,2.5,1.8c.9.4,1.9.7,3,.7h0c1.1,0,2.1-.2,3-.6.9-.4,1.8-1,2.5-1.7s1.3-1.6,1.7-2.6c.4-1,.6-2.2.6-3.4h0ZM378.4,8.1v42.7h-7.8V8.1h7.8ZM392.2,48.7v13.7h-7.8V20.2h1.9l3.1,3.7c.7-.7,1.5-1.3,2.3-1.9s1.7-1.1,2.6-1.5,1.8-.8,2.8-1c1-.3,1.9-.4,2.9-.4h0c2.2,0,4.2.4,6.1,1.2,1.9.8,3.5,1.9,5,3.3,1.4,1.4,2.5,3.1,3.4,5.1.8,2,1.2,4.2,1.2,6.6h0c0,2.5-.4,4.8-1.2,6.8-.8,2-1.9,3.7-3.4,5.1-1.4,1.4-3.1,2.5-5,3.2s-3.9,1.1-6.1,1.1h0c-.7,0-1.4,0-2-.2-.7,0-1.3-.3-2-.6s-1.3-.5-1.9-.9c-.6-.3-1.3-.6-1.8-1h-.1ZM407.8,35.2h0c0-1.3-.2-2.5-.6-3.5s-1-1.9-1.7-2.6-1.5-1.3-2.5-1.6c-1-.4-2-.6-3-.6h0c-1.1,0-2.1.2-3,.6s-1.8.9-2.5,1.6-1.3,1.6-1.7,2.6c-.4,1-.6,2.2-.6,3.5h0c0,1.2.2,2.4.6,3.4s1,1.9,1.7,2.6c.7.7,1.5,1.3,2.5,1.7.9.4,1.9.6,3,.6h0c1.1,0,2.1-.2,3-.6,1-.4,1.8-1,2.5-1.7s1.3-1.6,1.7-2.6c.4-1,.6-2.2.6-3.4ZM449.5,35.2h0c0,2.3-.4,4.4-1.2,6.4-.8,2-1.9,3.7-3.3,5.1-1.4,1.4-3.1,2.6-4.9,3.4-1.9.8-3.9,1.2-6.1,1.2h0c-2.2,0-4.2-.4-6.1-1.2s-3.5-2-5-3.4c-1.4-1.4-2.5-3.1-3.4-5.1-.8-2-1.2-4.1-1.2-6.4h0c0-2.3.4-4.5,1.2-6.5.8-2,1.9-3.7,3.4-5.1,1.4-1.4,3.1-2.6,5-3.4s3.9-1.2,6.1-1.2h0c2.2,0,4.2.4,6.1,1.2,1.9.8,3.5,1.9,4.9,3.3s2.5,3.1,3.3,5.1,1.2,4.2,1.2,6.6ZM441.6,35.2h0c0-1.3-.2-2.4-.6-3.4-.4-1-1-1.9-1.7-2.6s-1.5-1.3-2.5-1.7c-.9-.4-1.9-.6-3-.6h0c-1.1,0-2.1.2-3,.6s-1.8,1-2.5,1.7-1.2,1.6-1.6,2.6c-.4,1-.6,2.2-.6,3.4h0c0,1.2.2,2.3.6,3.3s.9,1.9,1.6,2.6c.7.7,1.5,1.3,2.5,1.8.9.4,1.9.7,3,.7h0c1.1,0,2.1-.2,3-.6.9-.4,1.8-1,2.5-1.7s1.3-1.6,1.7-2.6c.4-1,.6-2.2.6-3.4h0ZM461.6,48.7v13.7h-7.8V20.2h1.9l3.1,3.7c.7-.7,1.5-1.3,2.3-1.9s1.7-1.1,2.6-1.5,1.8-.8,2.8-1c1-.3,2-.4,2.9-.4h0c2.1,0,4.2.4,6.1,1.2,1.9.8,3.5,1.9,5,3.3,1.4,1.4,2.5,3.1,3.4,5.1.8,2,1.2,4.2,1.2,6.6h0c0,2.5-.4,4.8-1.2,6.8-.8,2-1.9,3.7-3.4,5.1-1.4,1.4-3.1,2.5-5,3.2s-3.9,1.1-6.1,1.1h0c-.7,0-1.4,0-2-.2-.7,0-1.3-.3-2-.6s-1.3-.5-1.9-.9c-.6-.3-1.3-.6-1.8-1h-.1ZM477.2,35.2h0c0-1.3-.2-2.5-.6-3.5s-1-1.9-1.7-2.6-1.5-1.3-2.5-1.6c-1-.4-2-.6-3-.6h0c-1.1,0-2.1.2-3,.6s-1.8.9-2.5,1.6-1.3,1.6-1.7,2.6c-.4,1-.6,2.2-.6,3.5h0c0,1.2.2,2.4.6,3.4s1,1.9,1.7,2.6c.7.7,1.5,1.3,2.5,1.7.9.4,1.9.6,3,.6h0c1.1,0,2.1-.2,3-.6,1-.4,1.8-1,2.5-1.7s1.3-1.6,1.7-2.6c.4-1,.6-2.2.6-3.4Z"/>
          </g>
          <path class="cls-3" d="M226.9,51.4"/>
        </g>
      </g>
    </g>
  </g>
</svg>