<svg data-logo="logo" xmlns="http://www.w3.org/2000/svg" viewBox="0 0 375 51">
            <g style="opacity: 1;" id="logogram" transform="translate(0, 5.5) rotate(0)"><path d="M0.25 20C0.25 8.9543 9.2043 0 20.25 0H46.5C57.5458 0 66.5 8.9543 66.5 20V40H20.25C9.2043 40 0.25 31.0458 0.25 20Z" fill="#F02828"></path><path d="M46.5 7.5H20.25C13.3464 7.5 7.75 13.0964 7.75 20C7.75 26.9036 13.3464 32.5 20.25 32.5H46.5C53.4036 32.5 59 26.9036 59 20C59 13.0964 53.4036 7.5 46.5 7.5Z" fill="#ECD4AC"></path><path d="M20.25 26.25C23.7018 26.25 26.5 23.4518 26.5 20C26.5 16.5482 23.7018 13.75 20.25 13.75C16.7982 13.75 14 16.5482 14 20C14 23.4518 16.7982 26.25 20.25 26.25Z" fill="#000000"></path><path d="M17.75 18.75C18.4404 18.75 19 18.1904 19 17.5C19 16.8096 18.4404 16.25 17.75 16.25C17.0596 16.25 16.5 16.8096 16.5 17.5C16.5 18.1904 17.0596 18.75 17.75 18.75Z" fill="#ffffff"></path><path d="M47.75 26.25C51.2018 26.25 54 23.4518 54 20C54 16.5482 51.2018 13.75 47.75 13.75C44.2982 13.75 41.5 16.5482 41.5 20C41.5 23.4518 44.2982 26.25 47.75 26.25Z" fill="#000000"></path><path d="M45.25 18.75C45.9404 18.75 46.5 18.1904 46.5 17.5C46.5 16.8096 45.9404 16.25 45.25 16.25C44.5596 16.25 44 16.8096 44 17.5C44 18.1904 44.5596 18.75 45.25 18.75Z" fill="#ffffff"></path></g>
            <g style="opacity: 1;" id="logotype" transform="translate(73, 1)"><path fill="#ffffff" d="M14.82 27.97L14.82 40L8.79 40L8.79 9.89L29.87 9.89L29.87 15.92L14.82 15.92L14.82 21.94L23.85 21.94L23.85 27.97L14.82 27.97ZM49.34 40L47.45 37.38Q46.75 38.01 45.97 38.56Q45.18 39.12 44.32 39.53Q43.46 39.94 42.54 40.18Q41.63 40.42 40.69 40.42L40.69 40.42Q38.61 40.42 36.78 39.69Q34.95 38.95 33.58 37.60Q32.20 36.24 31.42 34.30Q30.63 32.36 30.63 29.94L30.63 29.94L30.63 17.51L36.34 17.51L36.34 29.94Q36.34 31.08 36.69 31.97Q37.03 32.86 37.62 33.47Q38.21 34.08 39.00 34.39Q39.78 34.71 40.69 34.71L40.69 34.71Q41.57 34.71 42.35 34.30Q43.14 33.89 43.73 33.22Q44.32 32.55 44.65 31.70Q44.99 30.85 44.99 29.94L44.99 29.94L44.99 17.51L50.72 17.51L50.72 40L49.34 40ZM60.82 27.15L60.82 40L55.09 40L55.09 17.51L56.47 17.51L58.36 19.70Q59.75 18.44 61.50 17.75Q63.26 17.07 65.17 17.07L65.17 17.07Q67.22 17.07 69.05 17.86Q70.88 18.65 72.24 20.02Q73.61 21.40 74.39 23.23Q75.18 25.07 75.18 27.15L75.18 27.15L75.18 40L69.45 40L69.45 27.15Q69.45 26.27 69.11 25.48Q68.78 24.69 68.19 24.11Q67.60 23.52 66.83 23.18Q66.05 22.85 65.17 22.85L65.17 22.85Q64.26 22.85 63.47 23.18Q62.67 23.52 62.08 24.11Q61.49 24.69 61.16 25.48Q60.82 26.27 60.82 27.15L60.82 27.15ZM85.03 37.12L85.03 40L79.26 40L79.26 8.57L85.03 8.57L85.03 28.39L93.57 17.56L100.17 17.56L92.71 26.92L100.17 40L93.57 40L89.02 31.83L85.03 37.12ZM123.47 28.56L123.47 28.56Q123.47 31.08 122.57 33.25Q121.67 35.42 120.11 37.01Q118.56 38.59 116.47 39.51Q114.38 40.42 111.99 40.42L111.99 40.42Q109.62 40.42 107.53 39.51Q105.44 38.59 103.87 37.01Q102.31 35.42 101.41 33.25Q100.50 31.08 100.50 28.56L100.50 28.56Q100.50 26.00 101.41 23.81Q102.31 21.63 103.87 20.04Q105.44 18.46 107.53 17.56Q109.62 16.65 111.99 16.65L111.99 16.65Q114.38 16.65 116.47 17.50Q118.56 18.35 120.11 19.92Q121.67 21.48 122.57 23.68Q123.47 25.87 123.47 28.56ZM117.70 28.56L117.70 28.56Q117.70 27.17 117.25 26.05Q116.80 24.92 116.02 24.12Q115.24 23.31 114.20 22.88Q113.16 22.45 111.99 22.45L111.99 22.45Q110.81 22.45 109.77 22.88Q108.73 23.31 107.97 24.12Q107.20 24.92 106.76 26.05Q106.32 27.17 106.32 28.56L106.32 28.56Q106.32 29.86 106.76 30.97Q107.20 32.08 107.97 32.90Q108.73 33.72 109.77 34.19Q110.81 34.67 111.99 34.67L111.99 34.67Q113.16 34.67 114.20 34.23Q115.24 33.79 116.02 32.99Q116.80 32.19 117.25 31.06Q117.70 29.92 117.70 28.56ZM163.37 30.97L163.37 30.97Q163.37 32.84 162.65 34.48Q161.94 36.12 160.71 37.34Q159.48 38.57 157.84 39.29Q156.21 40 154.34 40L154.34 40L139.28 40L139.28 9.89L154.34 9.89Q156.21 9.89 157.84 10.61Q159.48 11.32 160.71 12.55Q161.94 13.78 162.65 15.41Q163.37 17.05 163.37 18.92L163.37 18.92Q163.37 19.76 163.13 20.64Q162.90 21.52 162.48 22.34Q162.06 23.16 161.48 23.83Q160.89 24.50 160.17 24.95L160.17 24.95Q160.91 25.34 161.50 26.03Q162.08 26.71 162.50 27.53Q162.92 28.35 163.15 29.24Q163.37 30.13 163.37 30.97ZM145.31 27.97L145.31 33.97L154.34 33.97Q154.97 33.97 155.51 33.74Q156.06 33.51 156.47 33.10Q156.88 32.69 157.11 32.15Q157.34 31.60 157.34 30.97L157.34 30.97Q157.34 30.34 157.11 29.80Q156.88 29.25 156.47 28.84Q156.06 28.43 155.51 28.20Q154.97 27.97 154.34 27.97L154.34 27.97L145.31 27.97ZM145.31 15.92L145.31 21.94L154.34 21.94Q154.97 21.94 155.51 21.71Q156.06 21.48 156.47 21.07Q156.88 20.66 157.11 20.11Q157.34 19.55 157.34 18.92L157.34 18.92Q157.34 18.29 157.11 17.74Q156.88 17.20 156.47 16.79Q156.06 16.38 155.51 16.15Q154.97 15.92 154.34 15.92L154.34 15.92L145.31 15.92ZM189.04 28.56L189.04 28.56Q189.04 31.08 188.14 33.25Q187.24 35.42 185.68 37.01Q184.13 38.59 182.04 39.51Q179.95 40.42 177.56 40.42L177.56 40.42Q175.19 40.42 173.10 39.51Q171.01 38.59 169.44 37.01Q167.88 35.42 166.98 33.25Q166.07 31.08 166.07 28.56L166.07 28.56Q166.07 26.00 166.98 23.81Q167.88 21.63 169.44 20.04Q171.01 18.46 173.10 17.56Q175.19 16.65 177.56 16.65L177.56 16.65Q179.95 16.65 182.04 17.50Q184.13 18.35 185.68 19.92Q187.24 21.48 188.14 23.68Q189.04 25.87 189.04 28.56ZM183.27 28.56L183.27 28.56Q183.27 27.17 182.82 26.05Q182.37 24.92 181.59 24.12Q180.81 23.31 179.77 22.88Q178.73 22.45 177.56 22.45L177.56 22.45Q176.38 22.45 175.34 22.88Q174.30 23.31 173.54 24.12Q172.77 24.92 172.33 26.05Q171.89 27.17 171.89 28.56L171.89 28.56Q171.89 29.86 172.33 30.97Q172.77 32.08 173.54 32.90Q174.30 33.72 175.34 34.19Q176.38 34.67 177.56 34.67L177.56 34.67Q178.73 34.67 179.77 34.23Q180.81 33.79 181.59 32.99Q182.37 32.19 182.82 31.06Q183.27 29.92 183.27 28.56ZM213.95 28.56L213.95 28.56Q213.95 31.08 213.04 33.25Q212.14 35.42 210.59 37.01Q209.03 38.59 206.94 39.51Q204.85 40.42 202.46 40.42L202.46 40.42Q200.09 40.42 198.00 39.51Q195.91 38.59 194.35 37.01Q192.78 35.42 191.88 33.25Q190.98 31.08 190.98 28.56L190.98 28.56Q190.98 26.00 191.88 23.81Q192.78 21.63 194.35 20.04Q195.91 18.46 198.00 17.56Q200.09 16.65 202.46 16.65L202.46 16.65Q204.85 16.65 206.94 17.50Q209.03 18.35 210.59 19.92Q212.14 21.48 213.04 23.68Q213.95 25.87 213.95 28.56ZM208.17 28.56L208.17 28.56Q208.17 27.17 207.72 26.05Q207.27 24.92 206.49 24.12Q205.71 23.31 204.68 22.88Q203.64 22.45 202.46 22.45L202.46 22.45Q201.28 22.45 200.25 22.88Q199.21 23.31 198.44 24.12Q197.67 24.92 197.23 26.05Q196.79 27.17 196.79 28.56L196.79 28.56Q196.79 29.86 197.23 30.97Q197.67 32.08 198.44 32.90Q199.21 33.72 200.25 34.19Q201.28 34.67 202.46 34.67L202.46 34.67Q203.64 34.67 204.68 34.23Q205.71 33.79 206.49 32.99Q207.27 32.19 207.72 31.06Q208.17 29.92 208.17 28.56ZM222.89 8.57L222.89 40L217.12 40L217.12 8.57L222.89 8.57ZM233.03 38.49L233.03 48.57L227.26 48.57L227.26 17.51L228.64 17.51L230.93 20.22Q231.71 19.49 232.63 18.84Q233.56 18.19 234.55 17.71Q235.55 17.24 236.62 16.97Q237.69 16.69 238.78 16.69L238.78 16.69Q241.16 16.69 243.25 17.54Q245.33 18.40 246.90 19.95Q248.46 21.50 249.37 23.70Q250.27 25.89 250.27 28.56L250.27 28.56Q250.27 31.33 249.37 33.54Q248.46 35.76 246.90 37.30Q245.33 38.85 243.25 39.66Q241.16 40.48 238.78 40.48L238.78 40.48Q238.03 40.48 237.28 40.31Q236.54 40.15 235.81 39.86Q235.09 39.58 234.39 39.22Q233.68 38.87 233.03 38.49L233.03 38.49ZM244.52 28.56L244.52 28.56Q244.52 27.13 244.06 26.00Q243.61 24.86 242.84 24.07Q242.06 23.29 241.01 22.87Q239.96 22.45 238.78 22.45L238.78 22.45Q237.61 22.45 236.57 22.87Q235.53 23.29 234.75 24.07Q233.98 24.86 233.52 26.00Q233.07 27.13 233.07 28.56L233.07 28.56Q233.07 29.92 233.52 31.06Q233.98 32.19 234.75 32.99Q235.53 33.79 236.57 34.23Q237.61 34.67 238.78 34.67L238.78 34.67Q239.96 34.67 241.01 34.23Q242.06 33.79 242.84 32.99Q243.61 32.19 244.06 31.06Q244.52 29.92 244.52 28.56ZM275.17 28.56L275.17 28.56Q275.17 31.08 274.27 33.25Q273.36 35.42 271.81 37.01Q270.26 38.59 268.17 39.51Q266.08 40.42 263.69 40.42L263.69 40.42Q261.31 40.42 259.22 39.51Q257.13 38.59 255.57 37.01Q254.01 35.42 253.10 33.25Q252.20 31.08 252.20 28.56L252.20 28.56Q252.20 26.00 253.10 23.81Q254.01 21.63 255.57 20.04Q257.13 18.46 259.22 17.56Q261.31 16.65 263.69 16.65L263.69 16.65Q266.08 16.65 268.17 17.50Q270.26 18.35 271.81 19.92Q273.36 21.48 274.27 23.68Q275.17 25.87 275.17 28.56ZM269.40 28.56L269.40 28.56Q269.40 27.17 268.94 26.05Q268.49 24.92 267.72 24.12Q266.94 23.31 265.90 22.88Q264.86 22.45 263.69 22.45L263.69 22.45Q262.51 22.45 261.47 22.88Q260.43 23.31 259.66 24.12Q258.90 24.92 258.46 26.05Q258.02 27.17 258.02 28.56L258.02 28.56Q258.02 29.86 258.46 30.97Q258.90 32.08 259.66 32.90Q260.43 33.72 261.47 34.19Q262.51 34.67 263.69 34.67L263.69 34.67Q264.86 34.67 265.90 34.23Q266.94 33.79 267.72 32.99Q268.49 32.19 268.94 31.06Q269.40 29.92 269.40 28.56ZM284.11 38.49L284.11 48.57L278.34 48.57L278.34 17.51L279.73 17.51L282.01 20.22Q282.79 19.49 283.72 18.84Q284.64 18.19 285.64 17.71Q286.63 17.24 287.70 16.97Q288.78 16.69 289.87 16.69L289.87 16.69Q292.24 16.69 294.33 17.54Q296.42 18.40 297.98 19.95Q299.55 21.50 300.45 23.70Q301.35 25.89 301.35 28.56L301.35 28.56Q301.35 31.33 300.45 33.54Q299.55 35.76 297.98 37.30Q296.42 38.85 294.33 39.66Q292.24 40.48 289.87 40.48L289.87 40.48Q289.11 40.48 288.37 40.31Q287.62 40.15 286.90 39.86Q286.17 39.58 285.47 39.22Q284.77 38.87 284.11 38.49L284.11 38.49ZM295.60 28.56L295.60 28.56Q295.60 27.13 295.15 26.00Q294.70 24.86 293.92 24.07Q293.14 23.29 292.09 22.87Q291.04 22.45 289.87 22.45L289.87 22.45Q288.69 22.45 287.65 22.87Q286.61 23.29 285.84 24.07Q285.06 24.86 284.61 26.00Q284.16 27.13 284.16 28.56L284.16 28.56Q284.16 29.92 284.61 31.06Q285.06 32.19 285.84 32.99Q286.61 33.79 287.65 34.23Q288.69 34.67 289.87 34.67L289.87 34.67Q291.04 34.67 292.09 34.23Q293.14 33.79 293.92 32.99Q294.70 32.19 295.15 31.06Q295.60 29.92 295.60 28.56Z"></path></g>
            
          </svg>