<?xml version="1.0" encoding="UTF-8"?>
<svg xmlns="http://www.w3.org/2000/svg" version="1.1" viewBox="0 0 587 502.3">
  <defs>
    <style>
      .cls-1 {
        fill: #cfcfcf;
      }

      .cls-1, .cls-2, .cls-3, .cls-4, .cls-5, .cls-6, .cls-7, .cls-8, .cls-9, .cls-10, .cls-11, .cls-12, .cls-13, .cls-14, .cls-15, .cls-16, .cls-17, .cls-18, .cls-19, .cls-20, .cls-21, .cls-22 {
        fill-rule: evenodd;
      }

      .cls-2 {
        fill: #f1f1f1;
      }

      .cls-3 {
        fill: #efefef;
      }

      .cls-4 {
        fill: #ccc;
      }

      .cls-5 {
        fill: #d1d1d1;
      }

      .cls-6 {
        fill: #232323;
      }

      .cls-7 {
        fill: #eaeaea;
      }

      .cls-8 {
        fill: #c9c9c9;
      }

      .cls-9 {
        fill: #b3b3b3;
      }

      .cls-10 {
        fill: #e9e9e9;
      }

      .cls-11 {
        fill: #c3c3c3;
      }

      .cls-12 {
        fill: #d4d4d4;
      }

      .cls-13 {
        fill: #212121;
      }

      .cls-14 {
        fill: #dcdcdc;
      }

      .cls-15 {
        fill: #b9b9b9;
      }

      .cls-16 {
        fill: #d8d8d8;
      }

      .cls-17 {
        fill: #cdcdcd;
      }

      .cls-18 {
        fill: #e0e0e0;
      }

      .cls-23 {
        display: none;
      }

      .cls-19 {
        fill: #c4c4c4;
      }

      .cls-20 {
        fill: #c8c8c8;
      }

      .cls-24 {
        fill: #bcbcbc;
      }

      .cls-21 {
        fill: #bdbdbd;
      }

      .cls-22 {
        fill: #e4e4e4;
      }
    </style>
  </defs>
  <!-- Generator: Adobe Illustrator 28.6.0, SVG Export Plug-In . SVG Version: 1.2.0 Build 709)  -->
  <g>
    <g id="Livello_2" class="cls-23">
      <rect class="cls-24" x="-62.4" y="-107.5" width="767.8" height="759.9"/>
    </g>
    <g id="layer">
      <g>
        <path class="cls-6" d="M314.8,2.5c25.4.9,50.8,4.2,75.3,10.4,36.5,9.1,70.8,23.4,102,44.5,18.3,12.3,34.9,26.7,49.2,43.5,1.7,2,3.6,3.3,6,4.1,9,2.9,17.9,6,26.8,9q2.7.9,1.6,3.6c-2.5,5.7-4.9,11.5-7.6,17.1-1.1,2.4-1.1,4.3,0,6.7,7.1,14.4,11.9,29.5,14.7,45.3,3.5,19.8,2.9,39.6-1.4,59.2-7,31.8-22.5,59.2-44.2,83.2-25.6,28.4-56.8,49-91.6,64.5-19.7,8.7-40.1,15.5-61.1,20.3-20.4,4.6-40.9,7.6-61.7,9-22.9,1.5-45.8.8-68.6-2-9.4-1.1-18.6-3-27.9-4.5-.8-.1-1.6-.2-2.4-.4-2.2-.5-3.8.1-5.5,1.9-10.8,11.8-21.8,23.4-32.6,35.1-14.2,15.2-28.4,30.5-42.6,45.8-.9,1-1.5,2.3-2.3,3.5-.3-.3-.5-.5-.8-.8,1-14,2-28,3-41.9.9-13,1.9-26,2.8-39.1.6-8.7,1.2-17.5,2-26.2.3-2.5-.9-3.4-2.9-4.3-18.6-8.8-36.2-19.4-52.5-32-22.2-17.2-41.1-37.4-55.4-61.7-13.3-22.9-21.6-47.4-23.2-73.9-1.5-23.6,2.4-46.5,11.3-68.4.4-1,.8-2.1,1.1-3.1.4-1.4.3-2.7-.9-3.8-6.9-6.8-13.8-13.7-20.7-20.5-.1-.2-.3-.5-.4-.7q-1.7-2.1.7-3.2c.6-.3,1.3-.5,1.9-.8,15.9-6.6,31.7-13.1,47.6-19.8,1.7-.7,3.5-1.8,4.7-3.2,14.7-16.7,31.5-30.9,50-43.2,24.8-16.4,51.6-28.5,80-37.4,21-6.6,42.4-11.1,64.3-13.5,20-2.2,40.7-3.1,61.3-2.3M80.5,187.5c.6,2.8,1.1,5.6,1.7,8.3,1,3.5,1.9,6.9,2.9,10.4,1.6,6.9,3.2,13.7,4.8,20.6,1.2,4.3,2.4,8.6,3.6,13,0,.8-.2,1.7,0,2.4,1.9,8,3.9,16.1,5.9,24.1.6,2.7,1.3,5.3,1.9,8,.9,3.6,1.7,7.2,2.5,10.9,1.1,4.7,2.2,9.4,3.4,14.1,1.9,8.1,3.9,16.2,5.8,24.2.2,1.2-.3,3.4,2,2.3,4-1.9,7.9-4.2,11.8-6.3,1.3-.5,2.5-.9,3.8-1.4,4.1-2.1,8.3-4.2,12.4-6.3,2-.9,3.9-1.7,5.9-2.6,3.7-1.8,7.3-3.6,11-5.3,2.1-1,4.2-1.9,6.3-2.9,1.6-.7,1.7-1.9,1-3.3-.6-4-1.2-7.9-1.9-11.9-1.7-9.9-3.4-19.8-5.1-29.7-.2-1.2-.3-2.3-.5-3.5-.8-4.5-1.6-8.9-2.4-13.4-.2-1.8-.3-3.6-.7-5.3-.4-1.7.2-2.9,1.5-3.9l5.4-3.1c3.2-2,6.3-4,9.5-5.9,1.4-.8,1.8-2,1.6-3.5,1.3-5,2.6-10,4-15,1-2.5,2-5,3.1-7.5,2.3-4,4.6-8.1,6.9-12.2,5.2-7.1,10.6-14.1,17.3-20,2.2-2,4.4-3.9,6.6-5.9,2.6-1.8,5.1-3.8,7.9-5.3,5.9-3.2,11.9-6.2,17.9-9.3-2.4,1.6-4.8,3.2-7.2,4.8-2.1,1.3-4.2,2.7-6.3,4-3,2.3-6.1,4.7-9.1,7-2.3,2.2-4.6,4.3-6.8,6.5-1.6,1.8-3.3,3.6-4.9,5.4-2.8,3.8-5.6,7.6-8.4,11.3-1.3,2.3-2.7,4.6-4,6.9-.9,1.9-1.8,3.9-2.7,5.8-.8,1.9-1.6,3.9-2.4,5.9-.5,1.4-1,2.8-1.5,4.2-2.7,7.3-3.7,14.8-3.8,22.6.4,4.4.9,8.9,1.3,13.3.9,3.3,1.8,6.7,2.7,10,1.9,3.6,3.7,7.3,5.6,10.9,1,1.4,2,2.8,2.9,4.3,2.7,4.1,6.2,7.5,10.3,10.2,1.4,1,2.8,2,4.3,3,3.7,2.9,7.9,4.8,12.5,6.2,9.8,4,20.1,4.6,30.5,4,7.3-.4,14.5-1.5,21.4-4.3,4.2-1.6,8.4-3.3,12.5-4.9,2.6-1.4,5.3-2.7,7.9-4.1,2.7-1.7,5.3-3.3,8-5,2.5-1.9,5-3.8,7.5-5.7,2.5-2.3,5-4.6,7.5-6.9,1.9-2,3.8-4.1,5.7-6.1,2.9-3.8,5.8-7.7,8.7-11.5,2.5-4.7,5-9.5,7.5-14.2,1-2.8,2-5.6,3-8.4,1.1-4.5,2.1-8.9,3.2-13.4.1-1.1.2-2.2.3-3.4.1-2.5.3-5,.4-7.5-.4-4.1-.8-8.3-1.3-12.4,0-1-.1-2.1-.1-3.1.2,0,.3-.1.5-.1.7,1.6,1.3,3.2,2,4.8.5,2.2,1.1,4.5,1.6,6.7.3,3.6.6,7.2.9,10.9-.3,3.9-.5,7.8-.8,11.7,0,.3,0,.6-.1.8l-.3,1.6c-.4,1.7-.8,3.4-1.2,5.1-.7,2.4-1.4,4.9-2.1,7.3h0c-2,4.5-3.9,8.9-5.9,13.4-5,7.1-10.1,14.3-15.1,21.4h0c-.4.5-.8.9-1.3,1.3-.9.9-1.7,1.7-2.5,2.6-1.9.9-2.3,2.6-2.6,4.4-1.6,8.5-3.4,16.9-5.1,25.3-.3,1.5-.6,3-.9,4.5-.2,1,0,1.7,1.2,1.5,4.1-.5,8.2-1.1,12.3-1.6h1.7c8.6-1,17.3-1.8,25.9-2.7,2.2-.2,4.4-.5,6.6-.5s2-.7,2.2-1.9c.6-2.4,1.2-4.8,1.7-7.2,2.1-8.4,4.3-16.7,6.4-25.1,1-3.9,2-7.9,3-11.8.9-3.3,1.7-6.7,2.5-10,1-4.1,2.1-8.2,3.1-12.3.5-2.5,2.9-1.8,4.4-2.7,4.5-.8,8.9-1.6,13.4-2.4,9.6-1.6,18.8-4.3,27.7-8.2h.4l.3-.2c1.8-.7,3.6-1.5,5.4-2.2,3.5-1.7,7-3.5,10.5-5.2,1.6-.9,3.3-1.9,4.9-2.8,3.9-2.7,7.8-5.5,11.6-8.2,1.4-1.2,2.8-2.3,4.2-3.5,3.3-3.5,6.5-7,9.7-10.5.7-.9,1.4-1.7,2-2.6,4.2-5.7,6.3-12.2,7.5-19.1,1.1-3.9.9-7.8-.1-11.7-.2-5.5-3.2-10.1-4.7-15.1-1.5-2.8-3.1-5.5-4.6-8.3-2.6-4.2-5.8-7.7-9.8-10.7-1.1-.9-2.2-1.8-3.4-2.7-3.9-2.4-7.8-4.8-11.7-7.2-2.2-.9-4.4-1.8-6.7-2.8-3.3-1.1-6.7-2.3-10-3.4-6.1-1.3-12.3-2.6-18.4-3.9-4.4-.5-8.8-.9-13.3-1.4-6.1-.2-12.3-.4-18.4-.6-4.2-.1-8.3-.3-12.5-.4-3.6-.2-7.2-.4-10.8-.6.9-.3,1.8-.6,2.7-.9-9.5-.4-18.9-.4-28.3-.4s-1.4.6-2.1.9c-1.2,0-2.5.1-3.7.1s-2.4.4-1.7,2.2c1,2.8,1.9,5.7,2.9,8.5,1.2,4.2,2.4,8.3,3.6,12.5.3,1.2.5,2.4.9,3.6.9,2.9,1.9,5.7,2.9,8.5,3.2.2,6.3.3,9.5.5q3.7.6,2.9,4.2c-.2,1-.3,2.1-.4,3.2-.1.5-.3,1-.4,1.6-.9,4.2-1.8,8.3-2.7,12.5-.3,1.7-.6,3.4-1,5.1-.1,1-.2,1.9-.4,2.9-.2.7-.4,1.4-.6,2.1-.2.6-.4,1.3-.7,2-.3.8-.8,1.5-1.1,2.3-.6-.6-1.1-1.2-1.7-1.8-1-1.5-2-2.9-3-4.3-2.8-3-5.7-6-8.5-9-2.8-1.9-5.6-3.9-8.3-5.8-3.6-1.7-7.3-3.4-10.9-5-1.9-.6-3.9-1.2-5.8-1.7-3.7-.6-7.3-1.3-11-1.9-6.4-.8-12.8-.8-19.2.5-3.7.7-7.3,1.5-10.9,2.2-1.9.6-3.9,1.2-5.8,1.8-4.2,1.6-8.3,3.3-12.5,4.9-.6.1-1.1.1-1.7.2.5-3.3.9-6.7,1.4-10,.6-6.5-.8-12.7-4-18.4-1.8-4.3-4.6-7.8-8.1-10.9-1.8-1.6-3.6-3.3-5.3-4.9-3.8-2.5-7.7-5-11.5-7.5-1.3-.6-2.7-1.2-4-1.8-4.2-2.2-8.7-3.8-13.4-4.2-5.8-1.8-11.6-2.2-17.6-2.2-4.4.2-8.9.4-13.3.6-6.1.9-12.2,1.8-18.3,2.6-4,.9-7.9,1.9-11.9,2.8-1.9.6-3.9,1.1-5.8,1.6-3.8,1.2-7.7,2.4-11.5,3.6-11.1,4.4-22.3,8.7-33.4,13.1-3.9,1.6-7.9,3.3-11.8,4.9-1.9.8-3.7,1.5-5.6,2.3-3.9,1.6-7.8,3.2-11.7,4.9-7.4,3-14.7,6-22.1,9-1.4.6-1.8,1.2-.6,2.3,1.7,1.6,3.3,3.3,5,4.9.2.5.4,1.1.7,1.4,6.7,6.6,13.3,13.2,20,19.8,1,1.1,2,1.2,3.3.7,3.4-1.4,6.9-2.7,10.4-4q3.3-.8,4,2.3c.5,1.8,1,3.6,1.5,5.5.8,3.3,1.5,6.6,2.3,9.9.9,3.7,1.7,7.4,2.6,11,.4,1.5.9,3.4,1.4,5.3M522.7,205.1l3.8-8.4c0-.5.3-.9.4-1.4,2-4.5,3.9-9,5.9-13.5,3.1-7.2,6.2-14.5,9.2-21.7,1.9-4.2,3.9-8.3,5.8-12.5,2-4.5,4-9,5.9-13.5,1.2-2.5,2.4-5,3.6-7.5.7-1.5.3-2.2-1.3-2.7-7-2.2-13.9-4.5-20.9-6.7-3.7-1.2-7.3-2.4-11-3.7-1.5-.5-3.1-.9-4.6-1.3-4.2-1.5-8.5-2.9-12.7-4.4q-4.8-2-5.8,3.1c-.2.8,0,1.6-.2,2.4-.8,3.9-1.6,7.8-2.4,11.7-.6,3.3-1.3,6.6-1.9,10-.9,4.4-1.8,8.8-2.6,13.3-.8,3.9-1.6,7.9-2.4,11.8-.3,1.5-.6,3-.9,4.6-.8,3.5-1.5,6.9-2.3,10.4-1,4.5-2.1,8.9-3.1,13.4-.4,1.6-.8,3.3-1.2,4.9-1.1,4.5-2.1,9-3.2,13.5-.2.2-.3.4-.2.7-.8,3.1-1.7,6.1-2.5,9.2-.8,2.5-1.6,5-2.6,7.4-.6,1.6-.1,2.2,1.5,2.6,10.4,2.2,20.8,4.4,31.3,6.7,1.5.3,2.6.3,3.3-1.4,1.8-4.6,3.7-9.2,5.6-13.9,1.4-3.2,2.8-6.4,4.2-9.6.3-1.3.8-2.4,1.3-3.5M460.1,261.8l-3.4,3.4c-3.2,3-5.7,6.5-6.9,10.7-1.7,2.9-1.8,6-1.6,9.2-.1,4.7.9,9,4,12.7,2.3,1.9,4.7,3.8,7,5.7,3.5,2.5,7.3,3.9,11.6,3.5,4.9.6,9.2-1.3,13.4-3.4,7.6-4,13.7-9.4,16.8-17.6,2-3.4,2.7-7,2.3-10.9.3-4.9-1.7-8.9-4.8-12.6-2.1-3.3-4.8-5.8-8.5-7.2-5.5-2.8-11-2.7-16.7-.9-5.1,1-9.6,3.5-13.2,7.4M79.1,90.4c1.6-.5,3.2-1,4.7-1.6,16-6.4,31.8-13,48.7-16.8,10.3-2.3,20.7-4.3,31.3-4.6h15.8c7.3,0,14.4,1.2,21.3,3.3,24.9,7.6,44.2,21.7,52.7,47.5.5,1.6,1.2,1.8,2.7,1.5,4.3-.8,8.7-1.8,13.1-2.2,14.5-1.1,28.8,0,42.6,5.3.6.2,1.2.1,1.8.1,0-.5,0-1.1-.2-1.6-1.7-5.9-3.4-11.7-5.1-17.6-2.5-8.6-5.1-17.3-7.7-25.9-.4-1.4-.6-2.5,1.4-2.4,5,.1,10,.2,15,.3,0,1.3.8,1.5,1.9,1.5,9.1,0,18.2,0,27.2-.1.6,0,1.2-.8,1.7-1.2,6.2.1,12.5,0,18.7.3,13.3.5,26.7.8,39.9,1.9,13.6,1.1,26.8,4.6,39.4,10,13.8,5.8,25.9,14.1,34.9,26.2,1.2,1.6,2.6,3,3.8,4.5.6-2,1.2-3.9,1.7-5.9,2-8.4,3.9-16.8,5.9-25.2q.6-2.6,3.3-1.7c4.1,1.4,8.2,2.7,12.2,4.1,5.3,1.8,10.5,3.6,15.8,5.3.5.2,1.2-.2,1.8-.3-.2-.5-.4-1.1-.7-1.4-2.3-2.3-4.6-4.5-6.9-6.7-25.9-24-55.9-41.5-88.7-54.2-38.3-14.8-78.1-22.3-119.2-23.4-32.3-.9-64.2,2-95.6,9.4-37.9,9-73.4,23.4-105.7,45.6-10.9,7.5-21.3,15.5-30.6,25-.4.3-.9.5-1.3.8,1.1.2,1.8.2,2.4.2M508.1,249c3.6,4.7,6.5,9.5,7.9,15.2,2.9,11.3.8,21.8-4.9,31.7-10.5,18.5-32.3,28.1-49.3,25.4-16.4-2.6-28.3-15.6-28.6-32.3-.2-15.1,6.4-27,17.5-36.7,5.5-4.8,11.9-8.1,18.9-10.3.5-.2.9-.5,1.4-.7-.5-.3-1-.8-1.5-1-2.7-.7-5.4-1.2-8.1-1.8q-3.5-.8-2.7-4.4c1.2-5,2.4-10,3.6-15,.4-1.6.8-3.2,1.1-4.9.3-1.4-.4-1.8-1.6-1.3-.5.2-1,.6-1.4.9-20.2,13.3-42.7,21.2-66.2,26.3-2.7.6-3.6,1.8-4.2,4.2-5.2,20.3-10.4,40.6-15.6,60.9-1.3,5.2-1.4,5.1-6.7,5.9-19.3,3-38.7,6.1-58,9.1-5.5.9-11,1.8-16.4,2.6-3.8.6-3.9.5-3.2-3.1.4-2.1.9-4.1,1.3-6.1,1.2-5.7,2.3-11.4,3.4-17.2.1-.6,0-1.3-.1-2-.6.1-1.3.2-1.9.4-.7.2-1.3.6-1.9.8-18.6,8.1-37.9,11.6-58.1,8.9-20.4-2.7-37.5-11.6-50.7-27.6-.7-.8-1.4-1.6-2.6-3,.2,2,.2,3.2.4,4.4,1.5,8.9,3,17.8,4.6,26.7q.6,3.7-2.8,5.2c-4.9,2.3-9.8,4.6-14.7,6.9-20.7,9.7-41.4,19.5-62.1,29.2q-3.4,1.6-4.3-2.2c-1.6-6.9-3.2-13.8-4.8-20.7-11.2-48.3-22.5-96.5-33.7-144.8-1.1-4.6-1.1-4.7-5.4-2.9-2.6,1.1-4.3.9-6.4-1.4-5-5.4-10.3-10.5-15.6-15.7q-2.5-2.4-3.8.9c0,.1,0,.3-.2.4-7.6,21.2-11,42.9-9,65.5,2,23.2,9,44.8,20.5,65,16.6,29.2,39.9,52.2,67.4,71,13.6,9.3,27.9,17.2,42.8,24.1,3.8,1.8,3.4.9,3.1,5.2-.3,5.1-.7,10.3-1.1,15.4-1.7,23.7-3.4,47.4-5,71.1-.1,1.1.1,2.2.1,3.3.9-.7,1.9-1.5,2.8-2.2.3-.3.6-.6.9-.9,20.9-22.3,41.7-44.7,62.5-67.1,2-2.1,3.7-2.6,6.5-2,21.9,4.8,44.2,7.1,66.5,7.9,13.9.5,27.8-.1,41.6-1.2,22.1-1.7,43.8-5.4,65.2-11.2,37.5-10.2,72.3-25.9,103.5-49.3,23.5-17.7,43.4-38.6,57.8-64.4,22.9-41.2,27.2-84.2,11.6-129-1.2-3.4-2.7-6.7-4.1-10-.2-.4-.7-.7-1-1.1-.3.4-.7.8-.9,1.2-.3.6-.6,1.2-.9,1.9-8.8,19.9-17.6,39.9-26.5,59.8-5.2,11.8-10.4,23.6-15.7,35.4-1.4,3.2-1.5,3.2-4.9,2.4-2-.8-4.2-1.3-6.3-1.7"/>
        <path class="cls-7" d="M208,278.5c-1.4-1-2.8-2-4.3-3,.6-.8,1.1-1.5,1.7-2.3,2.2-3.2,2.3-6.2-.5-9.2s-5.8-3-9.1-.4c-.7.6-1.6,1.1-2.3,1.6-1-1.4-1.9-2.8-2.9-4.3,0-1.9.1-3.9,0-5.8-.2-3.4-1.9-4.9-5.6-5.1-.9-3.3-1.8-6.7-2.7-10h1.2c4.9,0,7.2-2.4,7-7.3-.1-1.5-.5-2.9-.8-4.4q4.2-1.9,4.2-7.1v-2.1c5.6-4.4,6.9-4.4,12.5,0v3.3c.1,5.8-.7,5,5,5.1-.3.5-.6.9-.9,1.3-2.5,3-2.1,7.6.9,9.8,2.3,1.8,6.4,1.8,8.5-.1,2.3-2,2.8-5.8,1.1-8.6-.5-.8-.8-1.7-1.2-2.5,5.6-.1,5,.8,5-5.1v-3.3c1.9-1.8,4-3,6.8-2.6.7.1,1.5-.5,2.2-.8.5.8.9,1.6,1.4,2.4,1.8,3.6,3.6,7.2,5.4,10.8-.3.9-.7,1.8-.8,2.7-.3,5.2,2.5,8.8,7.7,8.1,2.1-.3,3.9-1.3,4.8-3.4l9.1,1.2c-.5.6-1,1.1-1.5,1.7-1.2,1.4-2.7,2.7-3.4,4.3-1.4,2.9,0,6.2,3.1,7.8,3.5,1.8,5.6,1.4,8.3-1.8,2.4-2.9,2.3-5.3-.1-8-1.2-1.4-2.6-2.7-3.9-4,2.5-.4,5-.9,7.4-1.3,1,.9,2,1.8,3.1,2.6,3.3,2.4,9.1.6,9.9-4.1.3-1.6.3-3.3.4-4.9,4.2-4.2,8.3-8.4,12.5-12.6,1.1,1.3,3.3,2.7,3.2,3.9-.6,4.3,1.6,5.7,5.2,6.1-.6.7-1.2,1.5-1.8,2.2-1.9,2.6-2,4.3-.4,6.8,2.1,3,4.9,4.2,7.7,3.3,2.8-.9,4.2-3.2,4.6-6.1.3-2.7-1.2-4.3-2.6-6.2,1.5-.2,3-.2,4.3-.6.6-.2,1.5-1.3,1.4-1.6-1.7-3.7.8-6.1,2.7-8.6,2.5-1,5-1,7.5,0,1.8,2.3,3.8,4.4,3.4,7.7,0,.4.9,1.3,1.5,1.4,1.2.3,2.5.1,3.7.2-2.5,4.7-5,9.5-7.5,14.2-.5-.1-1.1-.2-1.6-.3-4.4-1.3-6.9-.6-9,2.7-1.7,2.7-1.3,5.1,1.6,8.4.2.2.3.5.4.7-1.9,2-3.8,4.1-5.7,6.1,0-1.1,0-2.3-.2-3.3-.7-3.6-4.2-5.6-7.7-4.7-3,.8-4.7,2.8-5.5,5.6-.6,2.3,1.5,6,4,7.1,1.2.5,1.8,1,1.8,2.3-2.5,1.9-5,3.8-7.5,5.7,0-.8,0-1.6-.1-2.5-.4-3.6-2.4-5.6-6.1-6.1-2.4-.3-6.2,2.2-7.1,4.7s.3,6,2.7,7.6c.8.5,1.7.9,2.6,1.3-2.6,1.4-5.3,2.7-7.9,4.1-.8-5-4.2-7.7-8.7-6.8-3.4.6-5.3,4.9-4.2,9.3.2.8.3,1.6.4,2.4-6.9,2.8-14.1,3.9-21.4,4.3-10.4.6-20.7,0-30.5-4,.3-.9.6-1.8.9-2.7,1.4-3.3.6-6.6-2.1-8.3-2.9-1.8-6.5-1.4-8.9,1.3-.9,1.3-1.5,2.6-2.3,3.8M253.1,279.1c0-3.9-2.5-6.4-6.2-6.6-3.8-.2-6.9,1.8-7.1,7.2-.1,3.5,3.1,6.3,6.8,6.2,3.9,0,6.5-2.8,6.5-6.8M262.7,275.1c5.2.1,6.7-3.2,7-6.4.2-3.4-3.6-6.9-7-6.9s-7.2,3.5-7,6.9c.2,3.2,1.8,6.5,7,6.4M193.8,245.8c0,3.7,2.4,6.5,5.6,6.8,4.1.3,7.7-4.2,7.7-6.7s-3-6.6-6.4-6.7c-4.8,0-6.8,1.9-6.9,6.6M300.6,246c0-3.8-2.6-6.7-6.1-6.8-4.2,0-7.2,2.6-7.2,6.2s2.8,7,6.4,7.1c3.9.2,6.9-2.7,6.9-6.5M238.1,245.3c-.1-3.7-3.2-6.2-7.2-6.1-3.4.1-6.2,3-6.1,6.4.1,4,3.3,7.3,7,6.9,3.6-.3,6.1-2.8,6.3-7.2M253.1,256.4c0-4.6-1.7-6.3-6.5-6.3s-6.7,2.6-6.8,6.1c-.1,3.4,3.6,7.2,6.8,7.1,3.9-.2,6.5-2.9,6.5-6.9M278.2,262.6c3.7,0,6.6-2.8,6.6-6.3s-3.5-6.8-7.4-6.9c-3.4-.1-5.8,2.9-6,7-.2,3.4,2.1,6.7,6.8,6.2M231.1,275.1c4,0,6.9-2.6,7-6.1.1-4.4-2.8-7.3-7.2-7.2-2.6.1-6.2,4-6.1,6.7,0,3.8,2.7,6.6,6.3,6.6M215.4,262.6c3.7.9,6.2-2.4,6.7-6.2.4-3.1-4.1-7.1-7.4-7-3.2.1-5.8,3.1-5.8,6.9-.1,4.6,1.8,6.3,6.5,6.3"/>
        <path class="cls-7" d="M130.6,318.1c-1.2.5-2.5.9-3.8,1.4-.5-.1-1.1-.1-1.6-.3-5.1-1.6-6.7-1-10.1,3.2-.4.6-1.4.7-2.1,1.1-1.9-8.1-3.9-16.2-5.8-24.2,1.1-1,2.1-2.1,3.3-3,3.6-2.6,3.6-7.9-.7-10.3-1.6-.9-4-.6-6-.9-.9-3.6-1.7-7.2-2.5-10.9,1,.3,2.1.5,3.1.7,3.8.8,6.6-.5,8-4,.7-1.9,1.2-4-.6-5.7-1.9-1.9-3.7-4.6-6.9-3.4-2.3.8-4.6,1.9-5.6,4.4-2-8-4-16.1-5.9-24.1-.2-.8,0-1.6,0-2.4.9-1.6,2.2-3.1,2.7-4.9.8-2.8-.5-5.3-2.4-7.3.9-.3,1.7-.6,2.5-.8,2.7-.5,3.4-.9,3.2-3.7,0-2.6,1.3-4.4,2.6-6.3h7.5c.8,2,3.7,2.7,3.3,5.5-.4,2.4.4,3.9,3,4.4.5.1.8.6,1.2,1-.8,1.5-2,3-2.4,4.6-.9,3.6,1.8,7.3,5.5,7.9,4.1.6,7.4-2.2,7.8-6.1.3-2.6-1.2-4.4-2.5-6.4,1-.3,2-.5,2.9-.9.8-.4,2-1.2,2-1.6-.6-3.3,1.9-5.5,2.7-8.3h8.3c1.5,2.2,3.9,4.2,3,7.1-.7,2.3.3,2.7,2.1,2.8,1.1.1,2.2,0,3.3,0-.5.6-.9,1.4-1.5,1.9-2.7,2.1-2.1,5-1.5,7.6s4,4.2,7,3.8c1.2-.1,2.4-.5,3.6-.8.8,4.5,1.6,8.9,2.3,13.4-.5-.2-1.2-.1-1.5-.5-1.7-2.2-4-2.1-6.4-2-2.7.2-4.9,1.8-5.3,3.8-.7,3.2.5,7,2.5,8.3.2.1.5.3.7.4,4.3,1.4,7.7-.3,9.5-4.6.3-.6.6-1.2,1-1.8,1.7,9.9,3.4,19.8,5.1,29.7-2.1,1.5-3,3.6-3,6.2s1.1,4.9,4.9,5.6c.7,1.4.6,2.6-1,3.3-2.1.9-4.2,1.9-6.3,2.9-.3-1.3-.5-2.7-.9-4-1-3-4.1-5-6.6-4.6-3.8.6-5.6,2.9-6,6.7-.3,3,2,4.7,2.6,7.2-1.9.9-3.9,1.7-5.8,2.6-1.9-4.2-5.6-5.4-9.2-2.8-3.3,2.2-3.8,5.5-3.3,9.1M127.9,278.9c0-3.6-2.9-6.3-6.7-6.3s-6.7,2.8-6.7,6.8c.1,3.8,2.8,6.3,6.5,6.6,3.4.2,7.4-2.9,6.9-7.1M121.3,308.5c4,0,6.6-2.5,6.6-6.2s-3.4-7.1-6.6-7.1c-3.9-.1-6.8,3.1-6.8,7.3.1,3.6,2.8,6,6.8,6M143.8,269.1c0-4.2-2.4-7.2-6-7.3-3.4-.1-7.1,3.4-7.2,6.7,0,4.1,2.5,6.6,6.7,6.7,4.5,0,6.5-1.8,6.5-6.1M143.8,291.5c0-4.4-1.9-6.4-6.2-6.4s-7,2.8-7.1,7c-.1,2.7,4.1,6.4,7.1,6.4,3.5-.1,6.1-3,6.2-7M120.9,262.6c4.9.1,6.8-1.7,7-6,.2-3.8-2.1-6.8-6.6-6.5-4,.2-6.7,2.4-6.8,6.1,0,3.7,2.5,6.3,6.4,6.4M112.9,245.9c0-4.1-2.8-6.7-7.2-6.7s-6.2,3-6.1,6.8c0,4.3,2.5,6,6.6,6.5,2.8.4,6.7-3.7,6.7-6.6M131.3,245.5c0,4.1,2.7,7.1,6.3,7,3.5,0,6.2-3,6.2-6.7s-1.9-6.7-6.4-6.6c-4.4.1-6.1,1.9-6.1,6.3M146.3,279c0,4,2.5,6.8,6.4,6.9,3.1.1,6.8-3.6,6.9-7,.1-2.7-4-6.4-7-6.4-3.7.1-6.3,2.7-6.3,6.5"/>
        <path class="cls-11" d="M215.6,158.2c3-2.3,6.1-4.7,9.1-7,0,1.2,0,2.5.1,3.7.3,3,2.5,5.4,5.4,5.8,3.9.6,6.4-1.2,7.9-5.8,1.8.2,3.5.4,5.3.6,1.2.1,2.4.3,3.7.2,2.9-.2,5.7-.5,8.6-.8,1.9,5.5,6.7,7.5,11.2,4.3,1.3-1,2-2.8,3-4.3h17.5c.3,1,.4,2.2,1,3,1.7,2.2,4,3.4,6.8,2.8,3.2-.6,5-2.6,5.5-5.8,2.9.2,5.7.4,8.6.6.8,0,1.6.2,2.4.1,2.2-.2,4.3-.5,6.5-.7.2.4.4.7.5,1.1,2.2,5.2,7.4,6.3,11.4,2.4.8-.7,1.7-1.4,2.5-2.1l3,4.3c-1.9,2.3-2.2,4.9-.8,7.4,1,1.8,4.8,3.8,6.6,3.3,2.8-.8,4.9-2.7,5.7-5.4.8-2.5-.4-4.4-2-6.3-1.5-1.8-3.4-1.4-5.3-1.6,0-.7-.1-1.4-.1-2,.1-1,.2-1.9.4-2.9.6.1,1.5-.1,1.9.3,2.3,2.1,5,2.4,7.9,2.2,1.5,3.6,3.7,5.2,7,5,3.6-.2,5.7-2.3,6.4-5.8,6.1.3,12.2.6,18.3.8,0,.6-.1,1.3.2,1.6,3.7,4.4,9.7,4.8,11.9.2.2-.4.8-.7,1.2-1.1.1.1.3.2.4.3-1,4.7-2,9.3-3,14-.9-.1-1.9-.1-2.8-.3-3.4-.8-7.4,1.4-7.7,4.7-.2,2.1.5,4.3.7,6.4-.6.3-1.3.6-2,.9-.8.3-1.5.6-2.3.9-.8-.4-1.7-.8-2.5-1.3-3.3-2-6-1.7-9.2,1.2-1.5-.6-3.8,0-4.1-2.5,1.4-3.1,1.5-6.2-1-8.7-2.6-2.5-5.6-2.6-8.2-.7-3.1,2.3-4.1,5.2-2.8,8.6.3.9.9,1.7,1.3,2.6h-5.8c-.7-1.6-1.3-3.2-2-4.8-.1,0-.3.1-.4.1,0,1,.1,2.1.1,3.1-3.1-.2-6.3-.3-8.6,2.5-1.1-.9-2.2-1.7-3.4-2.6.1-.5.2-1.1.4-1.6,1.2-3,0-5.3-2.2-7.3-2.1-2-4.4-2.1-7.1-.9-3,1.3-3.9,3.7-3.6,6.7.1,1.3.6,2.6.9,4-1.7.6-3.4,1.1-5.1,1.7-3.4-3-6.9-3.5-10.5-.2-.3.2-.8.2-1.2.3-.9-1.6-1.7-3.2-2.5-4.8,0-1.1.2-2.2,0-3.3-.7-3.9-4.4-5.9-8.3-4.6-2.6-1-5.1-2-7.7-3,0-.8,0-1.7.2-2.5.6-3.4-3.6-7.7-6.7-7.7-4.2-.1-6.7,2.8-6.7,7.5s0,1.7.1,2.5c-3.5,1.2-7.3,2-10.4,3.8-4.9,2.8-9.3,6.4-13.9,9.6-1.9.6-3.8,1.1-5.7,1.7-1.4-.6-2.8-1.1-4.2-1.7.3-1.1.7-2.1.8-3.2.3-2.7-1.6-5.5-4.4-6.9-2.5-1.3-4.5-.2-6.4,1.3-3,2.4-3.3,4.4-1.8,8.8-2,.6-3.9,1.1-5.9,1.7-2.9-1.8-5.8-2.5-8.7-.2-.3.2-.8.2-1.2.2-1.4-.3-2.8-.6-4.3-.9,1.5-3.4,2.5-6.7-.9-9.7-.5-.4-.6-1.2-.8-1.8,1.6-1.8,3.3-3.6,4.9-5.4.8,4.8,3.7,7.5,7.5,6.8,3.1-.6,6.2-4.5,5.9-7.5-.2-3.3-2.8-5.6-6.5-5.9M253.1,164.5c0-4.1-2.9-7.2-6.5-7-4.3.2-6.9,2.8-6.9,7.1s3.5,7.1,6.5,7c4.5-.3,7.2-2.8,6.9-7.1M378.3,165.1c0-4.6-2.5-7.7-6.3-7.7s-7,3.7-7,7.4,3.6,6.6,6.8,6.7c3.5.3,6.4-2.7,6.5-6.4M315.7,164.4c0-3.9-2.7-6.9-6.2-6.9s-7.3,3.9-7.1,7.7c.2,3,3.9,6.5,7.1,6.4,3.6,0,6.3-3.1,6.2-7.2"/>
        <path class="cls-15" d="M34.3,135.2c-1.7-1.6-3.3-3.3-5-4.9-1.2-1.1-.8-1.8.6-2.3,7.4-3,14.7-6,22.1-9,0,.6,0,1.1,0,1.7,1.2,3.9,4.8,6,8.3,4.7,4.6-1.7,6.2-5,4.3-9.4l-.9-1.8c1.9-.7,3.8-1.5,5.6-2.2,3.6,4.9,9.3,4,11.9-2,1.2.3,2.6.4,3.7.9.5.2.8,1,1.2,1.6-.7,1.2-1.4,2.3-2.2,3.4-1.3,1.8-1.1,3.5-.3,5.4,1.2,2.9,4.4,4.9,7.2,4.4,3.1-.5,5.1-3.3,5.4-6.7.3-2.8-.9-4.7-2.6-6.6,1.5-2.1,3.7-1.7,5.9-1.7,1.4,2.2,3.2,3.8,5.9,4.2,3.5.5,5.6-1.6,7.4-4.2,1.4.6,2.8,1.2,4.2,1.7-.8,1.6-1.8,3.1-2.3,4.8-.9,2.9.5,5,2.6,6.8,2.3,2.1,4.8,2,7.3.8,2.3-1.1,3-3.2,3.4-5.8.3-2.7-1.5-4-2.6-5.8.8-.6,1.6-1.2,2.5-1.6.8-.4,1.7-.6,2.6-.9l2.3,2.3c2.6,2.4,5.8,2.7,8.6.5.9-.8,1.6-1.8,2.4-2.8,1.7.6,3.4,1.2,5,1.7-.5.7-1,1.3-1.5,2-1.5,2.4-1.5,5.1-.7,7.5.9,2.8,5.2,4.4,7.9,3.4,3.5-1.3,5.6-5,4.5-8.1-.6-1.7-1.9-3.3-2.8-4.9,1.7-1.6,3.7-2,5.9-1.7,1.6,2,3.1,4,6.1,4.2,3.5.3,5.5-1.8,7.3-4.2,1.5.6,3.8,0,4.2,2.5-.6.9-1.2,1.8-1.8,2.7-1.5,2.5-.7,4.8,1,6.9,1.8,2.1,4,3.5,6.9,2.7,2.6-.7,4.3-3,4.8-5.7.5-2.8-.9-4.7-2.5-6.6,1.1-2.7,3.5-2.5,5.8-2.5,3,4.9,6.7,5.6,10.9,2.1.5-.4,1.1-.8,1.6-1.2,1.7.3,3.4.6,5,.9-1.8,2.2-3,4.6-2.5,7.5.4,2.5,1.7,4.3,4,5.3s4.3.4,6.1-1c4-3,4.1-6.1.6-11,1-2.5,3.3-1.4,5.1-1.7,3,3,6.5,4.5,10.7,2.5,3.2,5.7,4.6,11.9,4,18.4h-1.4c-.3-4.7-3.4-8.4-6.9-8.2-3.7.2-6.4,3.8-6.5,8.6v.4h-5.7c-1.2,0-1.8.5-1.8,1.7-1.7.3-3.3.5-5,.8-.3-3.6-3.1-2.1-5.1-2.5-.3-1.6-.3-3.3-.9-4.8-1.2-3.3-4.9-4.8-8.3-3.6-3.6,1.3-5.1,3.9-4.9,7.6-1.8-.2-3.5,1-5.5.1-1.5-.7-2.9.4-2.9,2.4-3.6-.4-5.7,1.7-7.6,4.3-1.7-.6-3.3-1.2-5-1.8.9-1.2,1.8-2.4,2.7-3.7,1.4-2.2.8-4.3-.5-6.2-1.5-2.2-3.7-3.5-6.3-3.3-4.6.4-7.2,6.1-5.1,10.2.4.7.6,1.5,1,2.2-2.2.2-4.5.4-6.7.6-1.7-3.3-4.8-2.1-7.5-2.3,0-1.1-.5-1.8-1.7-1.7h-4.1c0-1.1.1-2.2,0-3.3-.4-4-4.5-6.4-8.4-5.1-4.2,1.4-4.9,4.7-4.9,8.4-2.2.6-4.5,1.1-6.7,1.7h-5c-.4-.5-.9-1.4-1.3-1.4-1.5,0-3.1.3-4.6.5,0-1.1.1-2.2,0-3.3-.3-3.5-4-6.8-7.2-6.6-3.5.2-6,3.1-6.1,7v2.9c-2.2.5-4.7-1-6.7.9h-5c0-1.2-.5-1.7-1.8-1.7h-4.9v-2.9c-.3-4.2-4.5-6.9-8.5-5.5-3.9,1.3-5.3,4.5-4,9.2h-4.9c-1.2,0-1.8.5-1.8,1.7-2.2-.3-4.4-.5-6.6-.8-1.7-.3-3.4-.6-5.1-.9,0-1.1,0-2.2,0-3.3-.3-3.4-3.8-6.7-6.8-6.5-3.9.2-6.4,2.8-6.5,7v2.1c-.9.6-1.8,1.3-2.7,1.9"/>
        <path class="cls-10" d="M351.6,296.7c-8.6.9-17.3,1.7-25.9,2.5.7-.5,1.5-1.1,2.2-1.6,2.2-1.3,4.3-2.5,4.5-5.4.2-3.4-2-6.4-5.2-7-3.1-.6-6.9,1.2-8,3.8-1.4,3.3.1,6.8,3.4,8.7.6.3.9,1.1,1.4,1.6-4.1.5-8.2,1.1-12.3,1.6-1.2.2-1.4-.6-1.2-1.5.3-1.5.6-3,.9-4.5,1.7-8.4,3.4-16.9,5.1-25.3.3-1.8.7-3.5,2.6-4.4v3.7c.1,2.9,2.4,5.8,5,6.2,3.9.5,7.3-1.5,8.2-4.7.8-2.7-1.3-6.7-4.2-7.7-1.7-.6-3.4-.9-5.2-1.3,5-7.1,10.1-14.3,15.1-21.4,1.1,0,2.2.1,3.3,0,2.7-.2,4.6-1.5,5.6-4,.9-2.3,1-4.4-1.1-6.4-.9-.8-1.3-2.1-2-3.1h0c1.1.1,2.2.1,3.3.2,2.1.3,2.9-.6,2.8-2.7,0-1.6.5-3.2.8-4.8,4-3.9,10.1-3.6,12.5.8v4.9c0,1.7.8,2.5,2.5,2.6h2.5c-.6.7-1.2,1.5-1.8,2.2-2.1,2.8-2,4.6.1,7.4,2,2.6,4.5,3.3,7.6,2.9-.9,3.3-1.7,6.7-2.5,10-3.5,0-5.7,1.8-6.2,5.2-.5,2.8.3,5.3,3.2,6.6-2.1,8.4-4.3,16.7-6.4,25.1-.6-.3-1.2-.7-1.8-1-2.6-1.5-6.3-1.1-8.4.9-2.2,2.1-2.6,4.4-1.2,7.5.2.8.5,1.6.8,2.4M334,278.7c0,4.4,2.6,7.2,6.7,7.2s6.4-2.7,6.7-6.5c.2-3.4-3-7.2-7.1-6.9-3.6.3-6.2,2.7-6.3,6.2M363.2,246.1c0-4-2.4-6.8-6-6.9-4.6-.2-6.8,2.2-7.3,6.6-.3,2.9,3.6,6.6,6.8,6.7,3.5.2,6.5-2.7,6.5-6.4M363.2,268.7c0-3.8-2.6-6.8-6.1-6.9-3.4-.1-7.5,3.3-7.2,6.6.3,4.3,2.2,6.6,6.3,6.8,4.1.1,7-2.7,7-6.5M340.6,250.1c-4.6,0-6.7,1.9-6.6,6.1.1,3.9,2.9,6.5,6.9,6.5s6.6-3,6.4-6.9c0-3.4-2.9-5.8-6.7-5.7"/>
        <path class="cls-9" d="M224.8,111.5c-1.8.3-4-.8-5.1,1.7-2.8-.3-5.5-.5-8.3-.8-1.7-.3-3.4-.6-5.1-.9.6-1.8.9-3.6.1-5.5-2.1-5-7.7-5.9-11.4-2-1.9,2.1-.9,4.5-1.2,6.7-2.3.1-4.7-.2-5.8,2.5-2.8-1.3-5.6-1.3-8.3,0-.4-2.6-2.7-1.9-4.2-2.5,0-.8.1-1.6,0-2.5-.2-4.1-2.8-6.7-6.7-6.7s-6.5,2.6-6.7,6.7v2.5c-2.2-.3-4.2.1-5.9,1.7h-7.4c-1.7-.6-3.4-1.1-5-1.7v-3.3c.2-3.1-1.9-4.4-4.3-5.4-2.1-.9-4.2-.8-6.1,1-2.3,2.2-3.4,4.6-3,7.7-.9.3-1.8.5-2.6.9-.9.4-1.6,1.1-2.4,1.6-2.8-.3-5.6-.5-8.3-.8-1.4-.6-2.8-1.2-4.2-1.7,0-.8.1-1.6,0-2.5-.1-3.3-1.9-5.7-4.7-6.5-2.7-.8-5.8.3-7.7,2.7-1.7,2-.6,4.2-.9,6.3-2.1,0-4.3-.4-5.8,1.7h-7.5c-.4-.6-.7-1.4-1.2-1.6-1.2-.5-2.5-.6-3.7-.9,0-1,0-2-.2-3,11.2-4.4,22.3-8.7,33.5-13.1v2.1c0,3.1,1.7,5.3,4.6,6.2,2.7.9,5.3.6,7.4-2,2-2.4,1.6-4.8.7-7.3-.3-.9-.8-1.7-1.2-2.6,2-.6,3.9-1.1,5.9-1.6,2.4,3.5,3.9,4.3,6.9,3.4,3.7-1.1,4.8-2.4,5-6.2,6.1-.9,12.2-1.8,18.3-2.6,0,1.2-.1,2.5,0,3.7.7,4.6,6.4,7,10.1,4.1,2.9-2.1,3.5-5.1,3.1-8.4,6-.1,11.9.4,17.6,2.2.7,6.3,5.7,9.4,10.5,6.5,1.1-.6,1.9-1.5,2.9-2.3,1.3.6,2.7,1.2,4,1.8-.4.9-1.1,1.7-1.3,2.6-.6,2.3-.9,4.4.8,6.6,1.9,2.4,4.4,2.8,7,2.4,2.3-.4,3.8-2.1,4.9-4.1,1.8,1.6,3.6,3.3,5.3,4.9-3.3,1.9-2.3,5.3-2.4,8.3M190.5,95.9c0-3.8-2.6-6.8-6.1-6.9-3.9-.1-7.1,2.7-7.3,6.4-.1,4.1,2.7,6.9,7,7,3.8,0,6.4-2.6,6.4-6.5M146.3,95.8c0,4.7,1.9,6.6,6.5,6.6s6.4-2.8,6.8-6.2c.4-3.5-3.6-7.2-7.1-7.1-3.6,0-6.2,2.9-6.2,6.7"/>
        <path class="cls-15" d="M344.1,134.1c.1-1.1.2-2.2.4-3.2q.8-3.7-2.9-4.2v-.9c5.9-2.9,7.6-6.1,4.3-11.7-.1-.2-.1-.5-.1-.8,1.7-.3,3.4-.6,5.1-.9,5,3.6,6.6,3.6,11.6,0,1.4.6,2.8,1.1,4.2,1.7-.4,1.2-.9,2.3-1.3,3.5-1,2.9.6,4.8,2.6,6.5,1.9,1.6,4,2.3,6.5,1.2,4.9-2.3,5.8-6.8,2.2-11.9,1.7-.6,3.4-1.1,5.1-1.7.4.3.9.6,1.3,1,4.3,3.7,7.4,3.5,11.2-.9,1.9,0,3.7.1,4.2,2.5-.3.5-.6.9-.9,1.4-1.3,2.4-1,6,.7,8,1.7,1.9,4.6,2.6,7.5,1.6,3.1-1.1,4.5-2.7,4.3-6.1-.1-1.9-1.1-3.8-1.6-5.7,1.7-.3,3.4-.6,5.1-.9,5,3.6,6.6,3.6,11.6,0,1.4.6,2.8,1.1,4.2,1.7-.5,1.5-1.4,3.1-1.5,4.6-.2,3,3.1,6.5,6.1,7,2.8.4,5.9-1.7,7.2-4.5,1.2-2.7-.6-4.7-.9-7.1,1.7-.6,3.4-1.1,5-1.7,5.3,3.7,8.1,3.5,11.7-.9,1.1.9,2.2,1.8,3.4,2.7-.2.9-.4,1.8-.6,2.7-.9,3.8.4,6.1,3.7,8,2.4,1.4,4.5.1,6.7-.1,1.5,2.8,3.1,5.5,4.6,8.3-1.5.9-2.9,1.8-4.4,2.6-2.5-.8-5-1.6-7.5-.1-.5-.5-.8-1.4-1.4-1.5-1.2-.3-2.4-.1-3.7-.1,0-1.1.1-2.2,0-3.3-.3-3.5-4-6.9-7.3-6.6-3.5.3-6,3.1-6.1,7v2.9c-2,.6-3.9,1.1-5.9,1.7-2.5-1-5-1-7.5,0-1.7-.6-3.4-1.1-5-1.7,0-1.2.1-2.5,0-3.7-.2-3.4-2.3-5.4-6.1-6-2.4-.4-5.5,1.5-6.4,4.1-.5,1.5-.6,3.2-.9,4.8-2,.6-4,1.1-5.9,1.7h-6.6c-1.7-.3-3.4-.6-5.1-.9,0-1.1.1-2.2,0-3.3-.3-3.5-4-6.9-7.3-6.6-3.5.3-6,3.1-6.1,7v2.9c-2.1,0-4.3-.4-5.8,1.7-2.9-.9-5.8-1.6-8.3.8-.5-2.4-2.3-2.5-4.2-2.5,0-1.1.1-2.2,0-3.3-.1-3.3-1.2-4.7-4.2-5.8-2.9-1.1-5.2-.4-7.3,1.8-2,2.1-2,4.7-1.9,7.3-1.9,2-3.9-.1-5.8-.1"/>
        <path class="cls-9" d="M429.2,114.1c-1.4-.6-2.8-1.1-4.2-1.7.3-1.6.8-3.2.8-4.8.1-3-2.4-5.6-5.5-6.1-3.3-.5-5.7,1.2-7.1,4.1-1.3,2.5.2,4.5.2,6.7l-5.1.9c-3.4-1-6.8-1.9-10,.8-.5-2.3-2.3-2.5-4.2-2.5.3-.8.7-1.5.8-2.3.3-4.1-2.5-7.5-6.3-7.7-4.2-.2-7,2.6-7.1,7.1v2.9c-1.7.6-3.4,1.1-5.1,1.7-3.4-.9-6.8-1.9-10,.9-1.4-.6-2.8-1.1-4.2-1.7.3-1.5.8-2.9.8-4.4,0-3.2-2.3-5.9-5.4-6.4-3.4-.6-5.8,1.2-7.4,4.4-1.2,2.4.5,4.3.3,6.4-1.7.3-3.4.6-5.1.9-1.9-.3-3.8-.8-5.7-.8-3.3,0-5.9,2.7-6,6-.1,4.7,2.3,7,7.5,7.3v.9c-3.2-.1-6.3-.3-9.5-.4-1-2.8-2-5.7-2.9-8.5-.4-1.2-.6-2.4-.9-3.6,3.3-2.2,4.5-4.5,3.7-7.4-1-3.8-2.7-5-7.3-5.1-.9-2.8-1.8-5.7-2.9-8.5-.6-1.8.1-2.2,1.7-2.2s2.5,0,3.7-.1c2.5.2,5,.4,7.6.6-.3,1.1-.6,2.1-.9,3.2-.7,3.1.7,5.3,3.1,7.1,1.6,1.2,5.5.9,7.4-.4,2.4-1.7,3.1-4.1,2.7-6.9-.1-.9-.5-1.8-.8-2.7,2.8-.2,5.7-.3,8.5-.5,3.6.2,7.2.4,10.8.6-.5,2.5-1.4,4.9.4,7.5,1.7,2.5,4.1,3.7,7.4,3.1,2.3-.4,4.6-3.4,4.7-6v-4.2c6.1.2,12.3.4,18.4.6.2,2.2-.1,4.5.7,6.4,1.2,2.7,5.5,4,8.3,3.2,2.1-.6,4.1-3.6,4.3-6.5v-1.6c6.1,1.3,12.3,2.6,18.4,3.9,2.2,4.5,4.9,5.4,10,3.4,2.2.9,4.4,1.8,6.7,2.8-.9,2.7-1.5,5.4,0,8.1-1.7.6-3.4,1.1-5,1.7-3.1-2.6-6.7-2.6-10.3-.2"/>
        <path class="cls-10" d="M501.1,286c-3.1,8.2-9.2,13.6-16.8,17.6-4.2,2.2-8.5,4.1-13.4,3.4.3-.8.7-1.5,1-2.3,1.2-2.5,1.2-5.1-.8-6.9-2.1-1.9-4.4-3.7-7.8-2-3.1,1.5-4,2.7-4.1,7.6-2.3-1.9-4.7-3.8-7-5.7,3.7-1.4,5.9-4.1,5.2-6.9-1.2-4.4-3.1-6.4-7.1-5.8-.7.1-1.4,0-2.1,0-.2-3.2-.1-6.4,1.6-9.2,1.6-.6,3.5-.8,4.8-1.8,3.2-2.3,3.6-5.5,2.1-9,1.1-1.1,2.2-2.3,3.4-3.4,1,.2,2.1.5,3.1.7,3.7.8,6.9-.2,8.6-3.1.9-1.5,1-3.3,1.5-5,5.7-1.8,11.3-1.9,16.7.9.3.9.7,1.8.8,2.7,0,3,2.3,3.8,4.5,4.5,1,.3,2.1,0,3.2,0,3.1,3.6,5,7.7,4.7,12.5-1-.7-2-1.5-3.1-1.9-2.4-.9-4.6-1.1-7,.8-2.8,2.2-2.6,5.1-2.1,7.9.4,2.1,3.7,4,6.7,4.1,1.2.3,2.3.3,3.4.3M472.6,278.8c0-3.5-3-6.2-6.8-6.2s-6.7,2.9-6.6,6.9c.1,3.7,2.8,6.4,6.6,6.5,4.1,0,6.8-2.9,6.8-7.2M488.4,291.9c0-4.8-1.8-6.6-6.3-6.8-3.8-.2-7.2,3.1-7.1,6.5.1,2.9,3.6,6.8,6.6,6.9,3.8.1,6.8-2.7,6.8-6.6M488.4,268.6c.8-4.3-2.9-6.3-6.5-6.8-3.1-.4-6.9,3.9-6.8,7.1.1,3.5,2.9,6.1,6.5,6.2,3.9,0,6.8-2.6,6.8-6.5"/>
        <path class="cls-21" d="M112.9,134.1c1.5-.2,3.1-.5,4.6-.5s.9.9,1.3,1.4c-.7.6-1.5,1.1-2.2,1.8-2.7,2.7-2.7,6.7-.2,9.6,2.1,2.4,6.5,2.8,8.9.8,3-2.5,3.6-6.5,1.4-9.5-.8-1.1-2-1.8-3-2.7,2.2-.6,4.5-1.1,6.7-1.7,4.7,6,10,6,13.4,0h4.1c1.2,0,1.7.6,1.7,1.7-.8,1.2-1.6,2.4-2.4,3.6-2.1.4-4.2,1.1-6.3,1.3-2,.2-2.2,1-1.6,2.7.6,1.8.8,3.7,1.1,5.6-5-1.7-7.5-.7-9.3,4-.4,1.1-.4,2.4-.6,3.6-1.5,0-3.1-.2-4.6.1-1.1.2-2,1.1-3,1.6h-2.5c0-1.2-.6-1.7-1.8-1.7h-5.8v-2.1c-.1-2.7-1.5-4.6-4-5.7-2.5-1.1-4.8-.6-7,.8-2.7,1.7-2.5,4.3-2.4,7h-7.8c-1.2,0-2.2.1-2.2,1.7h-1.7c-2.2-.6-4.4-1.1-6.7-1.7v-1.6c0-3.8-2.5-6.4-6.1-6.7-3-.2-6.4,1.3-6.4,5.7-3.5,1.3-6.9,2.6-10.4,4-1.3.5-2.2.4-3.3-.7-6.6-6.6-13.3-13.2-20-19.8-.3-.4-.5-.9-.7-1.4l2.7-2c1.2,3.4,3.8,4.1,7.1,4.3,3.1.2,4.1-2.4,6.2-3.5,1.7.3,3.4.6,5.1.9-.9,1.2-2,2.3-2.7,3.6-1.7,3.2-.3,7.7,2.8,9.3,3.1,1.6,7.4.1,9.1-3.3,1.7-3.3.9-5.9-2.6-8.9,0-1.2.6-1.7,1.8-1.6h4.9c4.2,5.2,9.4,4.9,12.6-.8h4.9c1.2,0,1.7.5,1.7,1.7-3.2,1.5-4.7,4.1-4.9,7.4,0,2.4,2.8,5.4,5.1,5.9,3,.6,6.1-.3,7.3-2.5,1.7-3.2,2.1-5.4-.7-8.5-.6-.7-1.2-1.5-1.8-2.2,2-1.9,4.5-.4,6.7-.9,1.8,2.7,4.3,3.4,7.4,3.5,3.1-.1,4-2.7,6.1-3.6"/>
        <path class="cls-11" d="M89.5,157.5c0-1.5.9-1.7,2.2-1.7h7.8c.9,3.4,3.4,4.9,6.7,4.9s5.8-1.5,6.7-5h5.8c1.2,0,1.8.5,1.8,1.7-.9.4-1.7.9-2.6,1.3-3.7,1.9-4.9,7.9-.7,11,2.8,2,6.7,2.2,8.9-.1,2.6-2.6,2.5-6.9-.1-9.6-1-.9-2.1-1.7-3.1-2.6,1-.6,1.9-1.4,3-1.6,1.5-.3,3-.1,4.6-.1,1.7,3,3.9,5.5,7.6,4.9,1.6-.3,3.1-1.5,4.7-2.4,1.8,8,3.6,16,5.3,24-.3.3-.6.7-.9,1.1-1.4-.6-2.8-1.1-4.2-1.7.3-1.5.8-2.9.8-4.4.2-4.2-2.6-7.3-6.3-7.2-3.9.1-7.6,4.2-7,8.1.2,1.2,1.1,2.4,1.6,3.5-2.1-.5-3.6.6-5.1,1.7-3.4-3-7-3.5-10.8-.8-1.4-.3-2.8-.6-4.3-.9.2-1.2.5-2.4.6-3.6,0-1.2,0-2.4-.4-3.5-1.3-3.1-4.3-4.7-7.1-4-4.5,1.1-5.8,2.8-5.5,7.2,0,1.3.6,2.6.9,4-1.7.3-3.4.6-5.1.9-.6-.2-1.3-.3-1.9-.7-2.3-1.4-4.6-1.4-7,0-.6.3-1.2.5-1.9.7-1.1-.9-2.3-1.8-3.4-2.7v-2.8c0-3.9-.7-4.8-4.7-6.4-.8-3.3-1.5-6.6-2.3-9.9,3.4-.2,6.1-1.5,7-5.1,2.2.6,4.4,1.2,6.7,1.7-2.7,1.7-4.7,4.1-4.8,7.2,0,2.5,1.3,5,4.1,6.1,3.2,1.3,5.1,1,7.5-1.3,2-2,2.8-4.2,1.7-7-1.2-3.2-3.6-4.5-6.8-4.9"/>
        <path class="cls-21" d="M287.3,154.9h-17.5c-.7-4.6-3.2-7.4-6.7-7.5-4.1-.1-6.7,2.6-7.5,7.5-2.8.3-5.7.6-8.5.7-1.2.1-2.4-.1-3.7-.2-1.8-.2-3.5-.4-5.3-.6-.3-5.2-1.8-6.7-7.2-7.8,2.4-1.6,4.8-3.2,7.2-4.8h-.1c.6,0,1.1,0,1.6,0,.3.5.5,1,.7,1.5,2,5.1,7.4,6.3,11.1,2.4,2.6-2.7,2-5.8.7-8.8l5.8-1.8c4.4,3.6,8.7,2.7,11-2.2,6.4-1.2,12.8-1.3,19.2-.5.3,2.7,1.8,4.4,4.5,4.5,2.4,0,5.5,1.1,6.5-2.6,1.9.6,3.9,1.2,5.8,1.7-.6.8-1.1,1.6-1.6,2.4-2.1,3,.2,8.8,4.7,9.4,4.5.5,7.4-1.9,7.8-6.8,2.8,1.9,5.6,3.9,8.3,5.9-3.5,1.3-5.4,3.8-5.9,7.6-2.2.2-4.3.5-6.5.7-.8.1-1.6-.1-2.4-.1-2.9-.2-5.7-.4-8.6-.6.2-2.6-.6-4.9-2.9-6.4-2.2-1.4-4.6-1.6-7-.4-2.7,1.6-3.6,4-3.5,6.9M277.7,148.3c4.2,0,7.2-2.7,7.1-6.4-.1-4.2-2.7-6.9-6.6-6.9s-6.8,2.8-6.7,7.2c0,3.5,2.6,6.1,6.2,6.1"/>
        <path class="cls-21" d="M425.8,134.1c1.7.6,3.3,1.1,5,1.7-.9,1.5-2.7,2.4-2.8,4.7-.2,2.8,1,6.1,3.3,7.2,2.5,1.2,6.5.8,8.1-.9,1.8-1.9,2.3-6.2,1-8.3-.6-.9-1.4-1.7-2.1-2.6,2-.6,3.9-1.1,5.9-1.7,1.9,3.1,4.8,4,8,3.2,1.9-.5,3.6-2.1,5.3-3.3,1.2,0,2.5-.1,3.7.1.5.1.9,1,1.4,1.5-.6.5-1.4.9-1.9,1.6-2.2,2.9-2,6.6.4,9.1,2.2,2.2,6.5,2.6,8.7.9,3.6-2.7,3.4-6,1.9-9.1-.4-.9-1.1-1.6-1.6-2.4,1.5-.9,2.9-1.8,4.4-2.6,1.5,5,4.5,9.6,4.7,15.1-1.1.9-2.7,1.6-3.1,2.8-.7,1.7-.6,3.7-.9,5.6-1.8,0-3.6-.1-5.3.1-.5.1-.9,1-1.4,1.5-1.4-.3-2.8-.5-4.2-.7-2-1.9-4.5-.4-6.7-.9-.2-1.5-.2-3-.6-4.4-1-3.6-3.5-5.2-7-4.8-3.4.4-5.7,3.1-5.8,6.7v2.5c-2.5.5-5.2-1-7.5.9-.5,0-1.1,0-1.6-.1-.4-.5-1-1.5-1.2-1.4-1.1.3-2,1-3,1.5-2.9-4.5-6.9-7.5-11.7-9.5-3-1.3-6.1-2.5-9.2-3.7.9-3.8-.7-6.8-3.3-9.4,2-.6,4-1.1,5.9-1.7,3.3,5.7,8.9,6,13.2.8"/>
        <path class="cls-21" d="M491.5,159.9c.8-3.9,1.6-7.9,2.4-11.8.8,0,1.6.1,2.5.1,2.8.2,5.3-.4,6.7-3s1.5-5.2-.7-7.6c-.6-.6-.6-1.8-.8-2.6,1.7-.6,3.4-1.2,5-1.8,1.8,3,4.2,4.6,8,4.3,2.6-.2,3.4-2.6,5.3-3.4,2,.3,4,.6,5.9.9-.6.5-1.3,1-1.9,1.5-2.9,2.7-3.1,6.7-.7,9.7,1.9,2.3,6.3,3.1,8.6,1.5,3.5-2.5,4.1-5.3,2.2-9.4-.4-.9-1.1-1.6-1.6-2.4,1.3-2.9,3.8-1.3,5.8-1.7,4,4.9,8.6,4.9,12.5,0h2.8c-2,4.5-4,9-5.9,13.5-.8,0-1.6-.1-2.5-.1-5.5-.4-6.5,2.6-7.7,6.3-.3.9,0,1.9,0,2.9-1.1.3-2.2.8-3.3.9-1.2.1-1.8.5-1.8,1.7-2.4-1.4-4.9-1.4-7.5-.8-1.2-2.1-3.2-1.6-5.1-1.7,0-.8,0-1.6,0-2.5-.2-4.1-2.8-6.7-6.7-6.7s-6.5,2.6-6.7,6.7v3.3c-2.1-.8-4.1-.9-5.1,1.7-2.9-1.7-5.8-2-8.7.1.2.1-.4.2-.9.4"/>
        <path class="cls-21" d="M344.1,134.1c1.9,0,3.9,2.1,5.8,0,2,2.5,4.5,3.7,7.9,3.5,2.7-.1,3.4-2.6,5.5-3.4,1.9,0,3.7.1,4.2,2.5-3,3.3-3.2,6-.7,9.5,1.3,1.9,5.1,3,7.6,2.1,2.6-.9,4.6-4.3,3.9-7.8-.3-1.6-1.6-3-2.4-4.6,1.5-2.1,3.7-1.6,5.8-1.7,1.9,3,4.8,4,8,3.2,1.9-.5,3.6-2.1,5.3-3.2,1.7.3,3.4.6,5.1.9-.8.9-1.6,1.8-2.3,2.8-1.6,2.3-1.5,5,.1,7.4-.9,3.9-1.7,7.8-2.5,11.7-.1-.1-.3-.2-.4-.3v-2.5c0-2.9-1.3-5-4-6.1-2.5-1.1-4.8-.6-7,.8-2.7,1.7-2.5,4.3-2.4,7-6.1-.3-12.2-.6-18.3-.8v-1.2c-.5-3.9-2.8-6.1-6.3-6.3-3.6-.2-5.7,1.4-6.7,5.1-.3,1-.3,2.1-.4,3.2-2.9.2-5.6-.1-7.9-2.2-.4-.4-1.3-.2-1.9-.3.3-1.7.6-3.4,1-5.1,3.4,0,5.5-2,6.2-5,.7-3.2-.3-6-3.5-7.6,0-.6.2-1.1.3-1.6"/>
        <path class="cls-11" d="M457.5,156.6c2.2.5,4.7-1,6.7.9-.5.4-1.1.8-1.6,1.2-3.7,2.4-4.1,5.2-2.9,8.8.8,2.4,5.1,4.8,7.4,4,3.2-1.1,5.7-2.7,5.5-7.6-.2-3-2.3-4.2-4.2-5.7.5-.5.9-1.5,1.4-1.5,1.8-.2,3.6-.1,5.3-.1,1.4,1.2,1.8,3.5,4.2,3.4-1.2,6.9-3.3,13.4-7.5,19.1-.6.9-1.3,1.7-2,2.6-3.1-1.4-6.1-1.1-8.9.8-1.7-.3-3.4-.6-5-.9,1.2-2.9,1.6-5.9,0-8.7-1.4-2.4-4.3-3.4-6.4-2.7-3.7,1.2-5.3,3-5.2,6.5,0,1.6.5,3.2.8,4.8-1.7.6-3.4,1.1-5,1.7-3.1-2.7-6.4-3.6-10-.9-1.7-.3-3.3-.6-5-.8v-2.6h0c.3-.3.6-.7.8-1.1,1.7-2.7,3.3-5.5,5-8.2.5.3,1.1.7,1.6,1,3,1.6,5.2.4,7.3-1.8,2-2.1,2.3-4.7.9-7.1-.9-1.7-2.6-3-3.9-4.5,2.3-1.9,5-.4,7.5-.9.7.9,1.3,2.1,2.3,2.7,4.1,3.1,7.2,2.3,10.9-2.4"/>
        <path class="cls-11" d="M501.7,159.1c1-2.6,2.9-2.5,5.1-1.7,1.1.8,2.1,1.8,3.2,2.5,3.5,2.1,6.7,1,10-3.3,1.9.1,3.9-.4,5.1,1.7-.5.5-.9,1-1.4,1.5-2.3,2.2-2.7,5.5-.9,8.2,2,3.1,5.2,4.2,8.1,2.8,5.1-2.3,5.8-7.4,1.6-11.7,0-1.2.6-1.6,1.8-1.7,1.1-.1,2.2-.6,3.3-.9.6.7,1.1,1.4,1.8,2,.8.6,1.7,1,2.6,1.5-3.1,7.2-6.2,14.5-9.2,21.7-3.7-1.6-7.1-1.2-10.1,1.6-1.4-.6-2.8-1.2-4.2-1.7.4-1.1.9-2.3,1.3-3.4,1-2.7-.4-4.6-2.2-6.1s-3.7-2.6-6.4-1.4c-4.4,2.1-5.5,4.9-3.6,10.2,0,1.2-.6,1.6-1.8,1.7-.8.1-1.6.6-2.4.9-.7-.3-1.5-.6-2.2-1.1-3.6-2.3-6.2-2-9.5,1-.4-.3-.8-.7-1.3-.8q-2.8-.5-1.7-3.2c.6-1.5,1.2-3-.4-4.4.8-3.5,1.5-6.9,2.3-10.4.2.9.3,1.9.6,2.8,1.9,4.6,6.7,5.7,10.4,2.4,3.4-3.2,3.4-5.9.1-10.7"/>
        <path class="cls-15" d="M538.5,134.1c-2,.4-4.6-1.2-5.8,1.7-2.2-.3-4.4-.6-6.6-.8-2-.3-4-.6-5.9-.9,0-1.1.2-2.2,0-3.3-.5-2.9-2.1-4.8-5-6-2.8-1.2-4.3.3-6.3,1.7-2.5,1.8-2.1,4.3-2.1,6.8-1.7.6-3.4,1.2-5,1.8-1.7,0-3.4-.1-5.1-.1.6-3.3,1.3-6.6,1.9-10,3.3.1,4.8-2.3,5.4-4.8.7-2.7-.2-5.4-3-6.9,0-.8,0-1.6.2-2.4q.9-5,5.8-3.1c-.4,2.9.9,5,3.4,6.4s5,1,7.3-.6c.7-.4,1.3-.9,2-1.4,1.5.5,3.1.9,4.6,1.3-.7,1-1.5,2-2,3.1-1.4,3.2.2,6.5,4,8.4,3.1,1.5,6.6.6,8.1-2.6.7-1.5.7-3.4,1-5.2,7,2.3,13.9,4.6,20.9,6.7,1.6.5,2,1.2,1.3,2.7-1.2,2.5-2.4,5-3.6,7.5h-2.8c.2-1.3.7-2.7.5-3.9-.8-4.3-4.6-6.7-8.3-5.5-4.8,1.3-6.5,4.8-4.9,9.4"/>
        <path class="cls-21" d="M217.2,134.9c0-1.2.6-1.7,1.8-1.7h5.7c1.7,1.6,2.5,4,5.6,4.3,4.2.4,6.4-1.6,7.8-5.1h1.4c-.5,3.3-.9,6.7-1.4,10h.1c-6,3-12,6-17.9,9.2-2.7,1.5-5.2,3.5-7.9,5.3-.7-2.8-3-2.6-5.1-2.8-1.4-4.4-3.6-6.6-6.7-6.7-3.8-.1-6,1.8-7.5,6.7-.7,0-1.5-.2-1.9.2-1.7,1.2-2.9.5-3.9-1-.6-1.7-1.2-3.3-1.7-5,3-.9,5-2.6,5.1-6,.1-4.4-.9-5.8-5.9-7.4,0-1.9,1.3-3,2.9-2.4,2,.9,3.7-.3,5.5-.1,2.6,4.8,3.8,5.5,8.3,5,2.8-.3,4.3-2.3,5.8-4.2,1.9.4,4.7-1.1,5.1,2.5-1,1.1-2.2,2.1-2.8,3.4-1.6,3.3.2,7.7,3.4,9,3.5,1.4,7.6-.6,8.8-4.3,1-3.7-.5-6.6-4.6-8.9"/>
        <path class="cls-11" d="M187.2,153.3c1,1.5,2.1,2.1,3.9,1,.5-.3,1.3-.1,1.9-.2.5,3,3.1,6.1,5.8,6.6,3,.6,5.3-.9,7-3.3.7-.9.9-2.2,1.4-3.3,2.1.3,4.5,0,5.1,2.8-2.2,2-4.4,4-6.6,5.9-6.7,5.9-12.1,12.9-17.3,20-3.7-3-5.6-3-10.4.5-1.4-.3-2.8-.6-4.2-.9.3-1.2.5-2.4.8-3.6,2.3-2.4,4.7-4.9,7-7.3,2.1-.5,4.2-.8,6.2-1.6,2.8-1.1,2.9-3.7,2.7-6.2-.2-2.2-.6-4.4-3.5-4.7.1-1.9.2-3.8.2-5.7"/>
        <path class="cls-22" d="M149.6,226.7c-1.1,0-2.2.1-3.3,0-1.7-.2-2.7-.6-2.1-2.9.8-2.9-1.5-5-3-7.1,1.3-.3,2.6-.7,4-.8,1.4-.1,1.9-.4,1.4-2-.7-2.4-.7-4.9.5-7.2.9-2,2.5-2.5,4.7-2.6,2.3-.1,4.3.7,6.2,1.8.3,1,.7,2.1.8,3.1q.4,6.9,7.6,7c-1,1.1-2,2.2-3,3.4-1.7,2-1.7,5.1,0,7.7l-5.4,3.1c-.2-2.7-2.4-3-4.3-3.3-1.3-.4-2.7-.2-4.1-.2"/>
        <path class="cls-10" d="M517.1,218c-1.9,4.6-3.8,9.2-5.6,13.9-.7,1.7-1.8,1.8-3.3,1.4-10.4-2.3-20.8-4.5-31.3-6.7-1.6-.3-2.1-.9-1.5-2.6.9-2.4,1.7-5,2.6-7.4,3.5-1.2,6.7-.8,9.5,1.8,1.3,2.3.9,4.8.6,7.2,0,.6,0,1.2,0,1.8,1.8-.4,3.4,1.9,5.5.3,2.4-1.8,5-1.4,7.7-.2,1.4.6,3.1.7,4.7.8.4,0,1.4-1.3,1.3-1.5-1.6-2.9,0-5.6.2-8.4,3.3-2.3,6.8-2.4,9.5-.4"/>
        <path class="cls-18" d="M363.2,220c-2.4-4.5-8.5-4.7-12.5-.8h-4.8c.4-1.7.8-3.4,1.2-5.1,2.3,0,4.7-.2,7,.1,4,.5,7.8,0,11.6-.9,4.2,5.2,6.8,5.5,11.8,1.2.2-.2.5-.3.7-.4,4.7,0,9.4.1,14,0,1.5,0,2.9-.5,4.4-.8,3.8,4.6,7.6,4.9,11.2,2.3.8-.6,1.5-1.5,2.2-2.3,4.3,0,8.5-.4,12.7,1-8.9,4-18.1,6.7-27.7,8.2-.9-5.3-5.8-8.1-10.2-5.8-1.2.7-2.1,2.1-3.2,3.2-6.1,0-12.2,0-18.4,0"/>
        <path class="cls-22" d="M102.1,216.7c-1.3,1.9-2.7,3.7-2.6,6.3,0,2.7-.5,3.2-3.2,3.7-.9.2-1.7.5-2.5.8-1.3-.2-2.5-.5-3.8-.7-1.6-6.9-3.2-13.7-4.8-20.6,2.3-2.8,4.2-3.3,7.2-2,.7.3,1.5.5,2.2.8,1.3,2.9,3,5.7,1.8,9.1-.4,1.1.5,1.6,1.6,1.8,1.3.1,2.7.5,4.1.8"/>
        <path class="cls-16" d="M184.7,204.2c.5-1.4,1-2.8,1.5-4.2h7.6c.2,3.4,2.4,6.3,4.9,6.7,3.6.5,6.4-1.4,7.7-5h18.3c1.2,3,3.2,5.1,6.7,5,1.9,0,1.6,1.4,1.6,2.6,0,1.7-1.2,1.6-2.3,1.5-2.8-.3-5.7-.5-8.5-.8-.2-.5-.5-1-.7-1.5-1.4-3.6-3.6-4.8-7.6-4.4-3.2.4-4.3,1.7-5,5.8-6.1-.3-12.2-.6-18.3-.8-1-2.7-2.6-4.8-5.9-4.9"/>
        <path class="cls-22" d="M184.7,204.2c3.3.1,4.8,2.2,5.8,5v4.2c-1.3,1.5-2.2,3.5-4.7,3.6-.3,0-.7.8-1,1.2.5.3,1,.9,1.5.9,2.5.1,5,.1,7.5.1v2.1q0,5.2-4.2,7.1c-2.7-1.8-5.7-1.9-8.7-1.7,0-7.7,1.1-15.3,3.8-22.5"/>
        <path class="cls-14" d="M166.3,215.9c-7.2-.1-7.1-.1-7.6-7-.1-1-.5-2.1-.8-3.1,1.7-.6,3.3-1.1,5-1.7.5.3.9.6,1.4.9,3.9,2.6,6.4,2.3,9.7-1.2.3-.3,1-.4,1.5-.6,1-.3,2-.5,2.9-.8-1.3,5-2.7,10-4,15-2.7-.3-5.1-2.3-8.1-1.5"/>
        <path class="cls-12" d="M444.2,204c-1.6.9-3.3,1.9-4.9,2.8-.1-1.4-.9-2-2.1-2.7-2.2-1.2-4.2.1-6.3.1-1.7-.3-3.4-.6-5-.9-.3-2.5-.5-5-.8-7.5,2.3-.2,5,.9,6.7-1.7h5.8c0,1.2.6,1.7,1.8,1.7h5.8c-.5,2.7-.7,5.4-1,8.2"/>
        <path class="cls-14" d="M425.8,203.3c1.7.3,3.4.6,5,.9-.6.7-1.4,1.4-1.7,2.2-.7,1.8-2.3,3.6-.4,5.6-1.8.7-3.6,1.5-5.4,2.2-.2-.2-.3-.4-.5-.6-.1.3-.2.5-.2.7h0c-4.1-1.4-8.4-1-12.7-1,.7-3.7-.7-6.7-3.4-9.2,2.2-.3,4.5-.6,6.7-.9,2.1.8,3,3.3,5.8,3.5,3.5.4,4.6-2.2,6.8-3.4"/>
        <path class="cls-12" d="M94.5,205c-.7-.3-1.5-.5-2.2-.8-3-1.3-4.9-.8-7.2,2-1-3.5-1.9-6.9-2.9-10.4l4.9-1.7h5c0,1.2.6,1.7,1.8,1.7h6.6c-1.2,2.8-1.3,5.6,0,8.3-2.1.4-4,.6-6,.9"/>
        <path class="cls-14" d="M365.7,213.3c-3.8.9-7.6,1.4-11.6.9-2.3-.3-4.7-.1-7-.1l.3-1.6c0-.3,0-.5.1-.8.3-3.9.5-7.8.8-11.7l1.6-.8c.3.6.7,1.1.8,1.7.4,4.1,1.9,5.6,5.9,5.8h3.3c2,.3,3.9.6,5.8.8-.4,2-1.5,3.9,0,5.8"/>
        <path class="cls-5" d="M501.7,159.1c3.3,4.8,3.2,7.5,0,10.5-3.7,3.4-8.5,2.3-10.4-2.4-.4-.9-.4-1.9-.6-2.8.3-1.5.6-3,.9-4.6.5-.2,1.1-.4,1.5-.7,2.9-2,5.8-1.7,8.7,0"/>
        <path class="cls-14" d="M517.1,218c-2.7-2-6.2-1.9-9.5.4-1.3-.3-2.6-.6-4-.8-1.9-.3-2.4-1-1.3-2.3,1.9-2.1,1.9-4.4,1.9-6.9h5.7c1.2,0,1.8-.5,1.8-1.7h2.5c.2.5.3,1.3.6,1.3,2.1.2,4.3,1.4,6.4.4-1.3,3.2-2.7,6.4-4.1,9.6"/>
        <path class="cls-2" d="M324,299.3c-.5-.6-.8-1.3-1.4-1.6-3.4-1.9-4.8-5.4-3.4-8.7,1.1-2.7,4.9-4.5,8-3.8,3.2.7,5.4,3.6,5.2,7-.2,2.9-2.3,4.2-4.5,5.5-.8.5-1.5,1.1-2.2,1.6h-1.7Z"/>
        <path class="cls-2" d="M322.8,261.4c1.7.4,3.5.7,5.2,1.3,2.9,1.1,4.9,5.1,4.2,7.7-.9,3.3-4.4,5.2-8.2,4.7-2.5-.3-4.9-3.2-4.9-6.2v-3.7c.9-.9,1.7-1.7,2.5-2.6l1.2-1.2h0Z"/>
        <path class="cls-1" d="M230.9,147.2c5.4,1,6.9,2.6,7.2,7.8-1.6,4.6-4.1,6.5-7.9,5.8-2.9-.5-5.1-2.9-5.4-5.9-.1-1.2-.1-2.4-.1-3.7,2-1.3,4.1-2.7,6.2-4"/>
        <path class="cls-2" d="M99.3,266.3c1.1-2.5,3.4-3.6,5.6-4.4,3.2-1.1,4.9,1.5,6.9,3.4,1.8,1.8,1.3,3.8.5,5.7-1.3,3.5-4.2,4.8-7.9,4-1.1-.2-2.1-.5-3.2-.7-.6-2.7-1.2-5.4-1.9-8"/>
        <path class="cls-2" d="M160,256.1c-.3.6-.7,1.2-1,1.8-1.8,4.3-5.2,6-9.5,4.6-.3-.1-.5-.2-.7-.4-2-1.2-3.2-5.1-2.5-8.3.4-2,2.6-3.6,5.3-3.8,2.4-.2,4.7-.2,6.4,2,.3.3,1,.3,1.5.5.2,1.2.3,2.4.5,3.6"/>
        <path class="cls-2" d="M308.3,264.7c0-1.2-.6-1.7-1.8-2.3-2.6-1.1-4.6-4.8-4-7.1.7-2.8,2.4-4.8,5.5-5.6,3.5-.9,7,1.1,7.7,4.7.2,1.1.1,2.2.2,3.3-2.6,2.4-5.1,4.7-7.6,7"/>
        <path class="cls-3" d="M501.1,286h-3.3c-2.9-.1-6.3-1.9-6.7-4.1-.5-2.8-.6-5.7,2.1-7.9,2.3-1.9,4.6-1.6,7-.8,1.1.4,2.1,1.3,3.1,1.9.5,3.9-.3,7.5-2.2,10.9"/>
        <path class="cls-17" d="M526.9,195.3c0,.5-.3.9-.4,1.4h-7.2c-3.7-4.3-6.4-4.5-11.7-.8h-5.8c-1.2,0-1.8-.5-1.8-1.7,2.3-1.3,3.8-3,3.4-5.9,6.1.3,12.2.6,18.3.9,1.8,2,3.5,4,5.2,6.1"/>
        <path class="cls-3" d="M292.8,275.4c-.9-.4-1.8-.8-2.6-1.3-2.4-1.6-3.7-5.1-2.7-7.6.9-2.5,4.8-5,7.1-4.7,3.6.5,5.7,2.6,6,6.1.1.8.1,1.6.1,2.5-2.6,1.6-5.3,3.3-7.9,5"/>
        <path class="cls-5" d="M339.9,158.2c1.9.2,3.8-.2,5.3,1.6,1.6,1.9,2.8,3.9,2,6.3-.9,2.8-2.9,4.6-5.7,5.4-1.8.5-5.6-1.6-6.6-3.4-1.4-2.5-1.1-5.2.8-7.4.6.6,1.1,1.2,1.7,1.8.4-.8.8-1.5,1.1-2.3.3-.6.5-1.3.7-1.9.2,0,.4,0,.7-.1"/>
        <path class="cls-3" d="M148.8,309.2c-.6-2.5-2.9-4.3-2.6-7.2.4-3.8,2.2-6.1,6-6.7,2.5-.4,5.5,1.7,6.6,4.6.4,1.3.6,2.7.9,4-3.6,1.7-7.3,3.5-10.9,5.3"/>
        <path class="cls-5" d="M215.6,158.2c3.8.3,6.4,2.6,6.6,5.8.3,3-2.8,6.9-5.9,7.5-3.8.7-6.7-2-7.5-6.8,2.2-2.1,4.5-4.3,6.8-6.5"/>
        <path class="cls-17" d="M445,195.8h-5.7c-1.2,0-1.8-.5-1.8-1.7,2-1.5,3.6-3.1,3.4-5.9h18.3c.3,1.3.6,2.6.9,3.9-1.4,1.2-2.8,2.3-4.2,3.5-3.8-3.4-6.3-3.3-10.9.2"/>
        <path class="cls-3" d="M149.6,226.7c1.3,0,2.7-.2,4,0,1.9.3,4.1.6,4.3,3.3-1.4,1-1.9,2.1-1.5,3.9.4,1.7.5,3.5.7,5.3-1.2.3-2.4.7-3.6.8-3,.3-6.4-1.3-7-3.8-.6-2.6-1.2-5.5,1.5-7.6.7-.5,1.1-1.2,1.6-1.9"/>
        <path class="cls-19" d="M378.3,92.2v4.2c-.1,2.6-2.4,5.6-4.7,6-3.3.6-5.7-.6-7.4-3.1-1.8-2.5-.9-5-.4-7.5,4.2.1,8.3.2,12.5.4"/>
        <path class="cls-19" d="M126,90.2c.4.9.9,1.7,1.2,2.6.9,2.5,1.3,4.9-.7,7.3-2.1,2.5-4.7,2.8-7.4,2-2.9-.9-4.5-3-4.5-6.2v-2.1c3.8-1.2,7.6-2.4,11.4-3.6"/>
        <path class="cls-20" d="M345.8,182.5h5.8c3.9,1.2,7.6,1.7,10.8-1.7.3,2.5,2.6,1.9,4.1,2.5-.3,1.9-.6,3.9-.9,5.8h-18.3c-.4-2.2-1-4.4-1.5-6.6"/>
        <path class="cls-22" d="M363.2,220h18.4v5c-1.5.9-3.9.1-4.4,2.7-3-1.1-5.9-1.5-8.9-.2h-2.5c-1.7,0-2.5-.9-2.5-2.6-.1-1.6-.1-3.2-.1-4.9"/>
        <path class="cls-16" d="M334.9,183.4c2.3-2.8,5.4-2.7,8.6-2.5.4,4.1.9,8.3,1.3,12.4-3,1.2-6,1.1-9,0-.6-1.7-1.2-3.3-1.7-5,.2-1.7.5-3.3.8-4.9"/>
        <path class="cls-3" d="M459.2,303.5c0-4.9,1-6.1,4.1-7.6,3.4-1.7,5.7.2,7.8,2,2,1.8,2,4.4.8,6.9-.4.7-.7,1.5-1,2.3-4.4.3-8.2-1.1-11.7-3.6"/>
        <path class="cls-1" d="M318.2,154.9c.4-3.7,2.4-6.3,5.9-7.6,2.8,3,5.7,6,8.5,9-.8.7-1.7,1.3-2.5,2.1-4,3.8-9.2,2.7-11.3-2.4-.2-.3-.4-.7-.6-1.1"/>
        <path class="cls-8" d="M535.2,117.2c-.3,1.7-.3,3.7-1,5.2-1.5,3.2-5,4.2-8.1,2.6-3.7-1.9-5.3-5.2-4-8.4.5-1.1,1.3-2.1,2-3.1,3.8,1.2,7.4,2.4,11.1,3.7"/>
        <path class="cls-3" d="M368.2,227.5c3-1.3,6-.9,8.9.2-1,4.1-2.1,8.2-3.1,12.3-3,.4-5.6-.3-7.5-2.9-2-2.7-2.2-4.6-.1-7.4.6-.7,1.2-1.4,1.8-2.2"/>
        <path class="cls-16" d="M511.8,206.7c0,1.2-.6,1.7-1.8,1.7h-5.7c-.4-.5-.8-1.1-1.2-1.6-1.9-2.5-4.6-3-7.4-2.6-2.8.4-4.4,2.1-4.7,4.9-1.8,0-3.6-.2-5.3.1-2.1.3-3.6-.5-5-1.9-.1-.3,0-.5.2-.7,4,.5,6.5-1.2,7.7-5,3,.3,6,.7,8.9.7s6.2-.5,9.4-.7c.7,2.5,2.4,4.2,4.9,5.1"/>
        <path class="cls-4" d="M315.7,141.5c-.3,4.9-3.3,7.3-7.8,6.8-4.5-.6-6.9-6.4-4.7-9.4.6-.8,1.1-1.6,1.6-2.4,3.7,1.7,7.3,3.4,10.9,5"/>
        <path class="cls-3" d="M272.3,284.4c-.1-.8-.2-1.6-.4-2.4-1.2-4.4.8-8.7,4.2-9.3,4.5-.8,8,1.9,8.7,6.8-4.1,1.6-8.3,3.2-12.5,4.9"/>
        <path class="cls-3" d="M208,278.5c.8-1.2,1.5-2.5,2.4-3.6,2.4-2.7,6-3.1,8.9-1.3,2.7,1.7,3.5,5,2.1,8.3-.4.9-.6,1.8-.9,2.7-4.6-1.3-8.8-3.2-12.5-6.1"/>
        <path class="cls-17" d="M347.4,189.1h18.3c-.5,2.4,1.8,3.3,2.6,5-1.7.6-3.4,1.2-5.1,1.8-.7-.3-1.5-.6-2.1-1-5.1-3.2-9.3-1.6-11.2,4.3l-1.6.8c-.3-3.6-.6-7.2-.9-10.9"/>
        <path class="cls-19" d="M175.4,82.5c.4,3.4-.3,6.3-3.1,8.4-3.7,2.8-9.5.5-10.1-4.1-.2-1.2,0-2.5,0-3.7,4.4-.2,8.8-.4,13.2-.6"/>
        <path class="cls-4" d="M81.2,155.8c-1,3.6-3.6,4.9-7,5.1-.5-1.8-1-3.6-1.5-5.5-.8-3-.7-3-4-2.3,0-4.4,3.5-5.9,6.4-5.7,3.6.3,6.1,2.9,6.1,6.7v1.7"/>
        <path class="cls-3" d="M193.4,265.2c.8-.5,1.6-1,2.3-1.6,3.3-2.6,6.3-2.6,9.1.4,2.9,3,2.7,6,.5,9.2-.6.8-1.1,1.5-1.7,2.3-4-2.7-7.4-6.2-10.2-10.3"/>
        <path class="cls-17" d="M188.6,194.1c.9-1.9,1.8-3.9,2.7-5.8,5.8.3,11.6.5,17.4.8.9,1.7,1.7,3.3,2.6,5-1.9.4-4.2-.9-5.9.9-3.2-1.9-6.5-2.4-10-.9-2.1,0-4.5,0-6.8,0"/>
        <path class="cls-3" d="M180.9,226.7c3.1-.2,6.1-.1,8.7,1.7.3,1.5.7,2.9.8,4.4.2,4.9-2.1,7.3-7,7.3h-1.2c-.4-4.5-.8-8.9-1.3-13.4"/>
        <path class="cls-8" d="M63.7,114.1c.3.6.7,1.2.9,1.8,1.9,4.3.4,7.7-4.3,9.4-3.4,1.3-7-.8-8.3-4.7-.2-.5,0-1.1,0-1.6,4-1.7,7.9-3.3,11.8-4.9"/>
        <path class="cls-2" d="M351.6,296.7c-.3-.8-.5-1.5-.9-2.3-1.4-3.2-1-5.5,1.2-7.5,2.1-2,5.8-2.4,8.4-.9.6.3,1.2.7,1.8,1-.6,2.4-1.2,4.8-1.7,7.2-.3,1.2-.9,1.9-2.3,1.9-2.2,0-4.3.4-6.5.6"/>
        <path class="cls-19" d="M409.9,94.2v1.7c-.2,2.9-2.2,5.9-4.3,6.5-2.8.8-7.1-.5-8.3-3.2-.8-1.9-.5-4.3-.7-6.4,4.5.4,8.9.9,13.3,1.4"/>
        <path class="cls-14" d="M480.5,207.4c1.4,1.3,2.9,2.1,5,1.9,1.7-.2,3.5-.1,5.3-.1-.3,3.2.2,6,3.4,7.6s.5.7.4.9c0,.3-.6.6-.9.6-2.1.1-4.1,0-6.2.1-2.8-2.6-6-3-9.5-1.8.9-3.1,1.7-6.2,2.5-9.2"/>
        <path class="cls-4" d="M496.6,134.9c1.7,0,3.4.1,5.1.1.3.9.3,2,.8,2.7,2.1,2.4,2,5.1.7,7.6-1.4,2.6-3.9,3.2-6.7,3-.8,0-1.6-.1-2.5-.1.9-4.5,1.7-8.9,2.6-13.3"/>
        <path class="cls-4" d="M252.2,137.3c1.3,3.1,1.9,6.1-.7,8.8-3.7,3.9-9.1,2.7-11.1-2.4-.2-.5-.5-1-.7-1.5,4.1-1.6,8.3-3.2,12.5-4.9"/>
        <path class="cls-16" d="M526.9,195.3c-1.7-2.1-3.4-4.1-5.2-6.1.3-1.9.6-3.9.9-5.8,3-2.8,6.4-3.2,10.1-1.6-1.9,4.5-3.8,9-5.8,13.5"/>
        <path class="cls-19" d="M222,98.2c-1.1,2-2.6,3.7-4.9,4.1-2.7.5-5.1.1-7-2.3-1.8-2.2-1.4-4.4-.8-6.6.2-.9.8-1.7,1.3-2.6,3.8,2.4,7.6,4.9,11.4,7.4"/>
        <path class="cls-22" d="M343.9,204.2c-1.1,4.5-2.1,8.9-3.2,13.4-2-1.1-4-2.2-5.9-3.4-.3-2.2-.6-4.5-.8-6.7,2.6-3.2,6.1-3.8,9.9-3.3"/>
        <path class="cls-16" d="M178,183.4c4.8-3.5,6.7-3.6,10.4-.5-2.3,4-4.6,8.1-6.9,12.2h-1l-1.2-2.4-2.1-4.2c.2-1.8.5-3.5.8-5.1"/>
        <path class="cls-20" d="M208.8,189.1c-5.8-.3-11.6-.5-17.4-.8,1.3-2.3,2.7-4.6,4-6.9,3.3,3.3,6.7,2,10.1.2,1.4.3,2.8.6,4.3.9-.4,2.2-.7,4.4-1,6.6"/>
        <path class="cls-10" d="M381.6,225.1v-5c1-1.1,1.9-2.5,3.2-3.2,4.5-2.4,9.3.5,10.2,5.8-4.5.7-8.9,1.5-13.4,2.4"/>
        <path class="cls-5" d="M205.5,181.6c-3.4,1.8-6.8,3.1-10.1-.2,2.8-3.8,5.6-7.6,8.4-11.3.3.6.4,1.4.8,1.8,3.4,3,2.4,6.3.9,9.7"/>
        <path class="cls-12" d="M335.7,193.3c3,1.1,6,1.2,9,0-.2,2.5-.3,5-.4,7.5-1.5,0-3.2.4-4.4-.2-2.6-1.2-5-.5-7.5.2.1-1.7,0-3.3-1.5-4.5-.6-.5-.7-1.4-1.1-2.1,2-.3,4-.6,5.9-.9"/>
        <path class="cls-18" d="M334.8,214.2c2,1.1,3.9,2.2,5.9,3.4-1,2.8-2,5.6-3.1,8.4-1.2,0-2.5.1-3.7-.2-.6-.1-1.5-1-1.5-1.4.4-3.3-1.7-5.4-3.4-7.7.6-.6,1-1.4,1.7-1.6,1.3-.5,2.8-.6,4.1-.9"/>
        <path class="cls-3" d="M448.2,285.1c.7,0,1.4.1,2.1,0,4-.6,6,1.4,7.1,5.8.7,2.7-1.5,5.5-5.2,6.9-3.1-3.7-4.1-8-4-12.7"/>
        <path class="cls-3" d="M103.8,285.1c2,.3,4.4-.1,6,.9,4.3,2.5,4.3,7.8.7,10.3-1.2.9-2.2,2-3.3,3-1.1-4.7-2.3-9.5-3.4-14.2"/>
        <path class="cls-10" d="M166.3,215.9c3-.8,5.4,1.2,8.1,1.7.2,1.5-.3,2.7-1.6,3.5-3.2,1.9-6.3,3.9-9.5,5.9-1.7-2.6-1.7-5.7,0-7.7,1-1.2,2-2.3,3-3.4"/>
        <path class="cls-19" d="M445,112.4c-1.5-2.7-.9-5.4,0-8.1,3.9,2.4,7.8,4.8,11.7,7.2-3.6,4.4-6.4,4.6-11.7.9"/>
        <path class="cls-3" d="M321.5,251.7c-.1-.2-.2-.5-.4-.7-2.9-3.3-3.3-5.8-1.6-8.4,2.1-3.3,4.6-4,9-2.7.5.2,1.1.2,1.6.3-2.8,3.8-5.7,7.6-8.6,11.5"/>
        <path class="cls-4" d="M542,160c-.9-.5-1.8-.9-2.6-1.5-.7-.6-1.2-1.3-1.8-2,0-1-.2-2,0-2.9,1.2-3.6,2.2-6.7,7.7-6.3.8.1,1.6.1,2.5.1-1.9,4.3-3.8,8.5-5.8,12.6"/>
        <path class="cls-3" d="M130.6,318.1c-.5-3.6,0-6.8,3.2-9.1,3.5-2.5,7.3-1.4,9.2,2.8-4.2,2.1-8.3,4.2-12.4,6.3"/>
        <path class="cls-19" d="M224.8,111.5c.1-3-.9-6.4,2.6-8.4,3.4,3.1,6.2,6.7,8.1,10.9-4.2,2-7.7.6-10.7-2.5"/>
        <path class="cls-14" d="M445,195.8c4.6-3.6,7.1-3.6,10.8-.1-3.9,2.7-7.8,5.5-11.6,8.2.3-2.7.5-5.4.8-8.1"/>
        <path class="cls-3" d="M343.9,226.6c.6,1,1.1,2.3,2,3.1,2,1.9,1.9,4.1,1,6.4-1,2.5-2.9,3.9-5.6,4-1.1.1-2.2,0-3.3-.1,1.9-4.5,3.9-9,5.9-13.4"/>
        <path class="cls-18" d="M488.4,201.7c-1.2,3.8-3.7,5.5-7.6,5,1.1-4.5,2.1-9,3.2-13.5,1.2.9,2.4,1.7,3.6,2.6.3,2,.5,3.9.8,5.9"/>
        <path class="cls-16" d="M332.4,200.8c2.5-.7,4.9-1.3,7.5-.2,1.3.6,3,.2,4.4.2-.1,1.1-.2,2.2-.3,3.4-3.8-.5-7.3.1-9.9,3.3-1.9-.3-4.1.8-5.8-.8,1.5-1.9,3.7-3.2,4.1-5.9"/>
        <path class="cls-12" d="M460,192.2c-.3-1.3-.6-2.6-.9-3.9.6-1.9,1.1-3.9,1.7-5.8,2.8-1.9,5.8-2.3,8.9-.8-3.2,3.5-6.4,7-9.7,10.5"/>
        <path class="cls-8" d="M469.8,124.8c-2.2.2-4.2,1.5-6.7.1-3.3-2-4.6-4.2-3.7-8,.2-.9.4-1.8.6-2.7,4,2.9,7.2,6.5,9.8,10.6"/>
        <path class="cls-19" d="M206.5,88.9c-1,.8-1.8,1.7-2.9,2.3-4.9,2.9-9.8-.3-10.6-6.5,4.8.4,9.3,2,13.5,4.2"/>
        <path class="cls-3" d="M473.4,254.4c-.5,1.7-.7,3.5-1.5,5-1.7,2.9-4.9,3.9-8.6,3.1-1.1-.2-2.1-.5-3.2-.7,3.6-3.9,8.1-6.4,13.3-7.4"/>
        <path class="cls-19" d="M324.8,101.6c4.6.1,6.2,1.3,7.3,5.1.8,2.8-.4,5.2-3.7,7.4-1.3-4.2-2.5-8.4-3.6-12.5"/>
        <path class="cls-22" d="M428.7,212c-1.9-2-.3-3.8.4-5.6.3-.8,1.1-1.5,1.7-2.2,2.1,0,4.1-1.3,6.3-.1,1.2.7,2,1.3,2.1,2.7-3.5,1.7-7,3.4-10.5,5.2"/>
        <path class="cls-19" d="M81.1,106.9c0,1,0,2,0,3-2.6,6-8.3,6.9-11.9,2,3.9-1.7,7.9-3.3,11.8-5"/>
        <path class="cls-19" d="M519.6,112.2c-.7.5-1.3.9-2,1.4-2.3,1.6-4.8,1.9-7.3.6-2.6-1.4-3.8-3.4-3.4-6.4,4.2,1.4,8.5,2.9,12.7,4.4"/>
        <path class="cls-13" d="M317.3,75.8c10.3.1,20.6.2,30.9.3-.6.4-1.2,1.2-1.7,1.2-9.1.1-18.2,0-27.2.1-1.2-.1-1.9-.3-2-1.6"/>
        <path class="cls-17" d="M487.6,195.8c-1.2-.9-2.4-1.7-3.6-2.6.4-1.6.8-3.3,1.2-4.9h5.7c-.2,2.7,1.5,4.4,3.4,5.9-2.3.5-4.5,1.1-6.7,1.6"/>
        <path class="cls-19" d="M143.8,85.7c-.3,3.8-1.3,5.2-5,6.2-3,.9-4.5.1-6.9-3.4,4-.9,7.9-1.8,11.9-2.8"/>
        <path class="cls-3" d="M89.9,226.8c1.3.2,2.5.5,3.8.7,2,2.1,3.2,4.5,2.4,7.4-.5,1.7-1.8,3.3-2.7,4.9-1.1-4.4-2.3-8.7-3.5-13"/>
        <path class="cls-4" d="M343.7,135.6c3.3,1.5,4.2,4.4,3.5,7.5-.7,3-2.7,5-6.2,5,.9-4.1,1.8-8.3,2.7-12.5"/>
        <path class="cls-3" d="M113,323.5c.7-.4,1.6-.5,2.1-1.1,3.5-4.3,5-4.8,10.1-3.2.5.2,1.1.2,1.6.3-3.9,2.1-7.8,4.4-11.8,6.3-2.2,1.1-1.8-1.1-2-2.3"/>
        <path class="cls-3" d="M368.5,261.9c-2.9-1.3-3.7-3.8-3.2-6.6.6-3.4,2.7-5.1,6.2-5.2-1,3.9-2,7.8-3,11.8"/>
        <path class="cls-4" d="M479.3,160c-2.4.1-2.8-2.2-4.2-3.4.3-1.9.2-3.9.9-5.6.5-1.2,2.1-1.9,3.1-2.8,1.1,4,1.3,7.9.2,11.8"/>
        <path class="cls-20" d="M490.9,188.3h-5.7c1-4.5,2.1-8.9,3.1-13.4,1.6,1.3,1,2.8.4,4.4-1,2.8-1,2.7,1.8,3.2.5.1.9.5,1.3.8-.3,1.7-.6,3.3-.9,5"/>
        <path class="cls-13" d="M334.9,91.4c-2.5-.2-5-.4-7.6-.7.7-.3,1.4-.9,2.1-.9,9.4,0,18.8,0,28.3.4-.9.3-1.8.6-2.7.9-2.8.1-5.7.3-8.5.4-3.9,0-7.7,0-11.6,0"/>
        <path class="cls-19" d="M500.9,113.2c2.8,1.5,3.7,4.2,3,6.9-.6,2.4-2.1,4.8-5.4,4.8.9-3.9,1.7-7.8,2.4-11.7"/>
        <path class="cls-12" d="M188.6,194.1c2.3,0,4.6.1,6.9.1-.6,1.9-1.2,3.9-1.8,5.8h-7.5c.9-2,1.6-3.9,2.4-5.9"/>
        <path class="cls-3" d="M456.7,265.1c1.5,3.5,1.1,6.7-2.1,9-1.3.9-3.2,1.2-4.8,1.7,1.2-4.2,3.7-7.7,6.9-10.7"/>
        <path class="cls-3" d="M167,297.6c-3.7-.7-4.9-2.1-4.9-5.6s.9-4.7,3-6.2c.7,3.9,1.3,7.9,1.9,11.8"/>
        <path class="cls-22" d="M345.9,219.2h4.8c-.3,1.6-.8,3.2-.8,4.8s-.7,3-2.8,2.8c-1.1-.1-2.2-.1-3.3-.2.7-2.5,1.4-5,2.1-7.4"/>
        <path class="cls-19" d="M299.1,134.8c-1,3.7-4.1,2.6-6.5,2.6s-4.2-1.8-4.5-4.5c3.7.6,7.3,1.3,11,1.9"/>
        <path class="cls-4" d="M180.5,195h1c-1,2.5-2,5-3.1,7.5-1,.3-2,.5-2.9.8-.3-2.5-.5-5-.8-7.5.6-.3,1.4-.9,1.6-.7,1.5,1.1,2.8,0,4.2,0"/>
        <path class="cls-12" d="M519.3,196.6h7.2l-3.8,8.4c-.9-.9-1.7-1.7-2.6-2.6-.3-1.8-.5-3.8-.8-5.8"/>
        <path class="cls-4" d="M76.5,170.8c4,1.6,4.7,2.4,4.7,6.4v2.8c-.7.6-1.4,1.2-2.1,1.9-.9-3.8-1.8-7.4-2.6-11.1"/>
        <path class="cls-19" d="M268.9,133.4c-2.2,4.9-6.5,5.8-10.9,2.2,3.6-.8,7.3-1.5,10.9-2.2"/>
        <path class="cls-3" d="M184.9,250.1c3.6.3,5.3,1.8,5.6,5.1.1,1.9,0,3.9,0,5.8-1.9-3.7-3.7-7.3-5.6-10.9"/>
        <path class="cls-3" d="M498.6,262.5c-1.1,0-2.3.3-3.2,0-2.2-.7-4.4-1.5-4.5-4.5,0-.9-.5-1.8-.8-2.7,3.7,1.4,6.4,3.9,8.5,7.2"/>
        <path class="cls-16" d="M520.1,202.5c.9.9,1.7,1.7,2.6,2.6-.5,1.1-.9,2.2-1.4,3.3-2.2,1-4.3-.2-6.5-.4-.2,0-.4-.9-.6-1.3,3-.1,4.3-2.3,5.9-4.2"/>
        <path class="cls-17" d="M87,194.2l-4.9,1.7c-.6-2.8-1.1-5.6-1.7-8.3h2.4c1.3,2.2,1.4,5.2,4.2,6.6"/>
        <path class="cls-20" d="M82.9,187.5h-2.4c-.5-1.9-1-3.8-1.5-5.7.7-.6,1.4-1.2,2.1-1.9,1.1.9,2.3,1.8,3.4,2.7-.5,1.6-1,3.3-1.6,4.9"/>
        <path class="cls-19" d="M438.4,101.5c-5.1,2-7.8,1.1-10-3.4,3.3,1.1,6.6,2.2,10,3.4"/>
        <path class="cls-21" d="M339.9,158.2c-.2.1-.5.1-.7.1.2-.7.4-1.4.6-2.1,0,.6,0,1.3.1,2"/>
        <path class="cls-10" d="M322.8,261.4c-.4.4-.8.8-1.3,1.2.5-.4.9-.8,1.3-1.2"/>
        <path class="cls-18" d="M422.6,214.4c.1-.2.2-.5.2-.7.2.2.3.4.5.6l-.3.2h-.4Z"/>
        <path class="cls-18" d="M347.5,211.7c0,.3,0,.5-.1.8,0-.3.1-.5.1-.8"/>
        <path class="cls-13" d="M178.8,67.3h.8-.8"/>
        <path class="cls-13" d="M163.8,67.4h.8c-.2-.1-.5-.1-.8,0"/>
        <path class="cls-22" d="M297.3,217.5l5.5-10.9c.4-.1.9-.1,1.1-.4,3.7-3.4,6.6-3.5,10.9-.3.3,1.6.7,3.2.8,4.8.1,1.7-.8,4,0,4.9,1,1,3.3.8,5,1.2h.8c-1.8,2.6-4.3,4.9-2.7,8.6.1.3-.8,1.4-1.4,1.6-1.4.4-2.9.4-4.3.6-2.5.1-5-2-7.5,0-3.6-.5-5.8-1.8-5.2-6.2.3-1.2-1.9-2.6-3-3.9"/>
        <path class="cls-18" d="M237.1,195.8c-2.5,6.4-3,13.2-3.4,20.1-.7.3-1.5.9-2.2.8-2.8-.5-4.9.8-6.8,2.6h-18.4c-5.6-4.4-6.9-4.4-12.5,0h-7.5c-.5,0-1-.6-1.5-.9.3-.4.6-1.2,1-1.2,2.4-.2,3.3-2.2,4.6-3.7,6.1,1.3,12.2,1.3,18.4,0,1.8,2.8,4.4,4.8,7.8,3.9,3.3-.9,5.6-3.4,5.6-7.3,2.8.3,5.7.5,8.5.8,1.1.1,2.3.2,2.3-1.5s.3-2.6-1.6-2.6c-3.5,0-5.5-2-6.7-5-.4-2.9.7-5.3,2.5-7.5,3.7-1.8,7.1-1.4,9.9,1.5"/>
        <path class="cls-14" d="M321.5,216.7h-.8c-1.7-.3-4-.1-5-1.2-.8-.9,0-3.2-.1-4.9-.1-1.6-.5-3.2-.8-4.8,1-.3,2-.5,2.9-.9.6-.3.9-1,1.3-1.6,2.6,2.4,5.5,4,9.2,3.3,1.7,1.7,3.9.5,5.8.8.3,2.2.6,4.5.8,6.7-1.4.3-2.8.4-4.1.9-.7.2-1.1,1.1-1.7,1.6-2.5-.9-5-.9-7.5.1"/>
        <path class="cls-22" d="M206.4,219.2h18.4v3.3c-.1,5.8.6,4.9-5,5.1-2.8-.5-5.6-1.5-8.3,0-5.7-.1-4.9.7-5-5.1,0-1.1,0-2.2,0-3.3"/>
        <path class="cls-2" d="M261.5,237.8h2.5c1.3,1.3,2.6,2.7,3.9,4,2.5,2.7,2.5,5.1.1,8-2.6,3.2-4.8,3.6-8.3,1.8-3.1-1.6-4.5-4.9-3.2-7.8.8-1.6,2.3-2.9,3.4-4.3.5-.5,1-1.1,1.6-1.7"/>
        <path class="cls-2" d="M253.1,279.1c0,4-2.6,6.7-6.5,6.8-3.8.1-7-2.7-6.8-6.2.2-5.4,3.3-7.4,7.1-7.2,3.6.2,6.2,2.7,6.2,6.6"/>
        <path class="cls-2" d="M262.7,275.1c-5.2.1-6.8-3.2-7-6.4-.2-3.4,3.6-6.9,7-6.9s7.2,3.5,7,6.9c-.2,3.2-1.8,6.5-7,6.4"/>
        <path class="cls-2" d="M193.8,245.8c0-4.7,2.1-6.6,6.9-6.6s6.4,3.2,6.4,6.7-3.7,7-7.7,6.7c-3.1-.3-5.6-3-5.6-6.8"/>
        <path class="cls-2" d="M300.7,246c0,3.8-3.1,6.7-6.9,6.6-3.7-.1-6.5-3.2-6.5-7.1s3.1-6.3,7.2-6.2c3.5,0,6.2,2.9,6.2,6.7"/>
        <path class="cls-2" d="M238.1,245.3c-.1,4.3-2.6,6.9-6.3,7.2-3.8.3-6.9-2.9-7-6.9-.1-3.4,2.7-6.3,6.1-6.4,4-.1,7.1,2.5,7.2,6.1"/>
        <path class="cls-2" d="M253.1,256.4c0,4-2.6,6.7-6.5,6.9-3.2.1-6.9-3.7-6.8-7.1.1-3.5,3-6.1,6.8-6.1,4.8,0,6.5,1.7,6.5,6.3"/>
        <path class="cls-2" d="M278.2,262.6c-4.7.5-7-2.8-6.8-6.2.2-4,2.6-7,6-7,3.9.1,7.3,3.4,7.4,6.9,0,3.5-2.9,6.3-6.6,6.3"/>
        <path class="cls-2" d="M231.1,275.1c-3.6,0-6.3-2.8-6.4-6.6,0-2.8,3.5-6.7,6.2-6.7,4.4-.1,7.3,2.8,7.2,7.2-.1,3.5-3.1,6.1-7,6.1"/>
        <path class="cls-2" d="M215.4,262.6c-4.8,0-6.6-1.7-6.6-6.3s2.6-6.7,5.8-6.9c3.3-.1,7.8,3.9,7.4,7-.3,3.8-2.8,7.1-6.6,6.2"/>
        <path class="cls-2" d="M211.4,227.5c2.8-1.5,5.5-.5,8.3,0,.4.8.8,1.7,1.2,2.5,1.7,2.8,1.2,6.6-1.1,8.6-2.1,1.8-6.1,1.9-8.5.1-3-2.3-3.4-6.9-.9-9.8.4-.4.7-.9,1-1.4"/>
        <path class="cls-2" d="M305.7,227.5c2.5-1.9,5,.1,7.5,0,1.4,1.8,2.9,3.5,2.6,6.2-.4,2.8-1.8,5.1-4.6,6.1-2.8.9-5.6-.2-7.7-3.3-1.6-2.4-1.5-4.2.4-6.8.5-.7,1.2-1.4,1.8-2.2"/>
        <path class="cls-3" d="M240.6,229.2c3.4,3.2,7.3,5.7,11.7,7.5-.9,2.1-2.7,3.1-4.8,3.4-5.1.6-8-2.9-7.7-8.1,0-1,.5-1.9.8-2.8"/>
        <path class="cls-3" d="M271.4,236.5c4.5-2.1,8.9-4.3,13.4-6.4-.1,1.6-.1,3.3-.4,4.9-.8,4.7-6.7,6.4-9.9,4.1-1.1-.8-2.1-1.8-3.1-2.6"/>
        <path class="cls-22" d="M132.9,216.7c-.8,2.8-3.3,5-2.7,8.3.1.4-1.2,1.2-2,1.6-.9.5-1.9.6-2.9.9-2.8-1.5-5.6-.5-8.3,0-.4-.3-.8-.9-1.2-1-2.5-.5-3.3-2-3-4.4.4-2.7-2.6-3.4-3.3-5.5,1.5-.3,2.9-.6,4.4-.8,1.4-.2,1.8-1,1.2-2-1.3-2.5-.3-4.8.2-7.2,3.8-3.6,7.8-3.6,11.7,0,.3.9.8,1.8.8,2.7,0,1.9-1.2,4.4-.4,5.5,1,1.4,3.6,1.4,5.5,1.9"/>
        <path class="cls-14" d="M115.4,206.7c-.5,2.4-1.5,4.7-.2,7.2.5,1,.1,1.8-1.2,2-1.5.2-2.9.6-4.4.8h-7.5c-1.4-.3-2.7-.7-4.1-.8-1.2-.1-2-.7-1.6-1.8,1.2-3.4-.5-6.2-1.8-9.1,2-.3,3.9-.6,5.9-.9,3,2.7,6.3,3.2,10,1.7,1.6.3,3.2.6,4.9.9"/>
        <path class="cls-14" d="M132.9,216.7c-1.9-.6-4.5-.6-5.5-1.8-.8-1.1.4-3.6.4-5.5s-.5-1.8-.8-2.7c2-.3,3.9-.6,5.9-.8,3.7,1.5,7,1,10-1.7.4,2.5,2.6,1.9,4.2,2.5-1.2,2.3-1.2,4.8-.5,7.2.5,1.6,0,1.9-1.4,2-1.3.1-2.7.5-4,.8h-8.3"/>
        <path class="cls-2" d="M127.9,278.9c.5,4.2-3.6,7.3-6.8,7.1-3.7-.3-6.5-2.8-6.5-6.6s2.7-6.8,6.7-6.8,6.6,2.7,6.6,6.3"/>
        <path class="cls-2" d="M121.3,308.5c-4,0-6.7-2.4-6.7-6.1-.1-4.2,2.9-7.4,6.8-7.3,3.2.1,6.6,3.8,6.6,7.1-.1,3.8-2.7,6.3-6.7,6.3"/>
        <path class="cls-2" d="M143.8,269.1c0,4.3-1.9,6.1-6.4,6-4.2,0-6.8-2.6-6.7-6.7,0-3.3,3.8-6.8,7.2-6.7,3.5.2,5.9,3.2,5.9,7.4"/>
        <path class="cls-2" d="M117.1,227.6c2.8-.5,5.6-1.5,8.3,0,1.3,1.9,2.8,3.7,2.5,6.3-.4,4-3.7,6.7-7.8,6.1-3.7-.5-6.4-4.3-5.5-7.9.5-1.6,1.7-3,2.5-4.5"/>
        <path class="cls-2" d="M143.8,291.5c0,4-2.6,6.9-6.2,6.9s-7.2-3.7-7.1-6.4c.1-4.2,2.9-7,7.1-7,4.3.1,6.2,2.1,6.2,6.5"/>
        <path class="cls-2" d="M120.9,262.6c-3.9-.1-6.4-2.6-6.3-6.5.1-3.7,2.8-5.9,6.8-6.1,4.5-.2,6.8,2.8,6.6,6.5-.3,4.4-2.2,6.2-7.1,6.1"/>
        <path class="cls-2" d="M112.9,245.9c0,2.9-3.9,6.9-6.8,6.6-4-.5-6.4-2.1-6.6-6.5,0-3.8,2.6-6.8,6.1-6.8,4.5,0,7.3,2.6,7.3,6.7"/>
        <path class="cls-2" d="M131.3,245.5c0-4.5,1.7-6.3,6.1-6.3s6.4,1.9,6.4,6.6-2.7,6.7-6.2,6.7c-3.7,0-6.3-2.8-6.3-7"/>
        <path class="cls-2" d="M146.3,279c0-3.9,2.6-6.5,6.4-6.4,3,0,7,3.7,7,6.4-.1,3.4-3.7,7-6.9,7-4-.2-6.6-2.9-6.5-7"/>
        <path class="cls-13" d="M430.7,169.8c-1.6,2.7-3.3,5.5-4.9,8.2-.3.3-.6.7-.8,1.1h0c-1.7,1.3-3.4,2.7-5.1,4.1l-6.5,3.4c-1.2.4-2.3.8-3.5,1.2-4.2.9-8.3,1.8-12.5,2.7-2.2.2-4.5,0-6.6.6-3,.7-2.5-1-2.2-2.7.3-1.4.6-2.8.9-4.2.9-4.5,1.9-8.9,2.8-13.4,1-4.7,2-9.4,3-14,.8-3.9,1.7-7.8,2.5-11.7q1.2-3.6,5-2.6c2.3.6,4.7,1.2,7,1.9,3.1,1.2,6.1,2.5,9.2,3.7,4.8,2,8.8,5,11.7,9.5,0,.3,0,.5.2.7,1.2,3.9.7,7.7-.2,11.5M420,164.9c-.2-2.5-1.1-4.6-3.4-5.5-1.9-.8-3.9-1.3-5.9-1.8-1.5-.4-2.2.3-2.5,1.9-.9,4.7-2.1,9.4-3.1,14.2-.6,2.7-.3,3,2.3,2.3,2.6-.8,5.3-1.6,7.7-3,2.9-1.8,4.6-4.7,4.9-8.1"/>
        <path class="cls-5" d="M253.1,164.5c.2,4.3-2.4,6.8-6.8,7-3,.2-6.5-3.8-6.5-7s2.5-7,6.8-7.1c3.6-.1,6.5,3,6.5,7.1"/>
        <path class="cls-5" d="M378.3,165.1c0,3.7-3,6.6-6.5,6.5-3.2-.1-6.9-3.7-6.8-6.7,0-3.7,3.5-7.4,7-7.4s6.3,3.1,6.3,7.6"/>
        <path class="cls-5" d="M315.7,164.4c.1,4.2-2.6,7.2-6.3,7.2s-6.9-3.4-7.1-6.4c-.2-3.8,3.4-7.7,7.1-7.7s6.2,3,6.3,6.9"/>
        <path class="cls-1" d="M381.6,155.8c0-2.6-.2-5.2,2.4-7,2.2-1.4,4.5-1.9,7-.8,2.7,1.2,4,3.2,4,6.1v2.5c-.4.3-1,.6-1.2,1.1-2.2,4.6-8.2,4.1-11.9-.2-.5-.4-.3-1.2-.3-1.7"/>
        <path class="cls-16" d="M208.8,189.1c.3-2.2.6-4.4.9-6.6.4-.1.9,0,1.2-.2,3-2.3,5.9-1.6,8.7.2.8,1.7,3.1,2.6,2.5,5-.8,1.9-1.7,3.9-2.5,5.8-2.8.3-5.5.6-8.3.8-.8-1.6-1.6-3.3-2.5-5"/>
        <path class="cls-1" d="M287.3,154.9c-.1-3,.8-5.3,3.6-6.8,2.4-1.2,4.8-1,7,.4,2.3,1.5,3,3.8,2.9,6.4-.5,3.2-2.4,5.2-5.5,5.8-2.8.5-5.2-.6-6.9-2.8-.7-.8-.8-2-1.1-3"/>
        <path class="cls-1" d="M255.6,154.9c.8-5,3.4-7.6,7.5-7.5,3.4.1,6,3,6.7,7.5-1,1.4-1.7,3.3-3,4.3-4.4,3.2-9.3,1.3-11.2-4.3"/>
        <path class="cls-5" d="M362.4,180.8c-3.2,3.4-6.9,2.9-10.8,1.7-.4-.9-1-1.7-1.3-2.6-1.2-3.3-.2-6.3,2.9-8.6,2.6-1.9,5.6-1.8,8.2.7,2.5,2.6,2.4,5.7,1,8.8"/>
        <path class="cls-1" d="M349.9,155.8c.1-1.1.1-2.2.4-3.2,1-3.8,3.1-5.3,6.7-5.1,3.5.2,5.7,2.4,6.2,6.3.1.4,0,.8,0,1.2-.7,3.5-2.7,5.6-6.4,5.8-3.2.2-5.4-1.4-6.9-5"/>
        <path class="cls-16" d="M368.3,194.2c-.8-1.7-3.1-2.7-2.6-5,.3-1.9.6-3.9.9-5.8,3.2-2.9,5.9-3.2,9.2-1.2.8.5,1.6.9,2.5,1.3,0,1.3.1,2.7.1,4-.6,1.9-1.2,3.9-1.7,5.9-2.9.2-5.7.5-8.4.8"/>
        <path class="cls-5" d="M225.6,180.8c-1.6-4.4-1.3-6.4,1.8-8.8,1.8-1.5,3.9-2.6,6.4-1.3,2.8,1.5,4.7,4.3,4.3,6.9-.1,1.1-.5,2.1-.8,3.2-.2.1-.5.2-.7.4-3.8,4-6.6,3.9-10.3,0-.2-.2-.5-.3-.7-.4"/>
        <path class="cls-5" d="M319.9,181.6c-.3-1.3-.7-2.6-.9-4-.3-3,.5-5.3,3.6-6.7,2.7-1.2,5-1.1,7.1.9,2.2,2,3.4,4.3,2.2,7.3-.2.5-.3,1.1-.4,1.6-2.1,2.1-4.5,3.1-7.4,2.5-1.5-.2-2.8-1-4.2-1.6"/>
        <path class="cls-16" d="M305,193.3c-.6-3.3-1.2-6.6-1.9-9.9.4-.1.9,0,1.2-.3,3.6-3.4,7.1-2.9,10.5.2.3,1.6.6,3.3.9,4.9.5,2.4-1.8,3.3-2.6,5-2.7,1.7-5.4.9-8.1.1"/>
        <path class="cls-5" d="M392.3,170.9c-.9,4.5-1.9,8.9-2.8,13.4-2.3-.9-4.7-1.8-7-2.6-.3-2.1-.9-4.3-.7-6.4.3-3.3,4.3-5.5,7.7-4.7.9.1,1.8.2,2.8.3"/>
        <path class="cls-1" d="M284.6,167.7c-4.4-.1-8.8-.2-13.2-.2v-2.5c0-4.7,2.6-7.6,6.7-7.5,3.1.1,7.3,4.4,6.7,7.7-.1.8-.1,1.7-.2,2.5"/>
        <path class="cls-20" d="M315.7,188.3c-.3-1.6-.6-3.3-.9-4.9,1.7-.6,3.4-1.1,5.1-1.7,1.4.6,2.7,1.3,4.2,1.6,2.9.6,5.4-.4,7.4-2.5,1.1.9,2.3,1.7,3.4,2.6-.3,1.6-.6,3.3-.9,4.9-6.1,0-12.2,0-18.3,0"/>
        <path class="cls-20" d="M225.6,180.8c.2.1.5.2.7.4,3.7,3.9,6.4,4,10.3,0,.2-.2.5-.2.7-.4,1.4.6,2.8,1.1,4.2,1.7-.6,1.7-1.2,3.3-1.7,5-2.3-.1-4.7-.1-7-.2-1.3-.1-2.7-.5-4-.5-2.2.1-4.3.4-6.5.7.5-2.4-1.7-3.3-2.5-5,1.9-.6,3.8-1.1,5.8-1.7"/>
        <path class="cls-20" d="M382.5,181.6c2.3.9,4.7,1.8,7,2.6-.3,1.4-.6,2.8-.9,4.2-3.3-1.8-6.8-.6-10.2-1,0-1.4-.1-2.7-.1-4,.8-.3,1.5-.6,2.3-.9.6-.3,1.2-.6,1.9-.9"/>
        <path class="cls-17" d="M300.5,178.6c-2.7-2.6-5.5-5.2-8.2-7.9,3.9-1.3,7.6.7,8.3,4.6.2,1,0,2.2,0,3.3"/>
        <path class="cls-12" d="M239.7,187.5c.6-1.7,1.2-3.3,1.7-5,1.9-.6,3.8-1.1,5.7-1.7-2.4,3.1-4.9,6.3-7.3,9.4,0-.9,0-1.8-.1-2.7"/>
        <path class="cls-4" d="M207.1,133.2c-1.5,2-3,3.9-5.8,4.2-4.5.5-5.8-.2-8.3-5-.1-3.7,1.3-6.3,4.9-7.6,3.4-1.2,7.1.3,8.3,3.6.6,1.6.7,3.2.9,4.8"/>
        <path class="cls-4" d="M62,135.7c3.5,3,4.3,5.6,2.6,8.9-1.7,3.4-6,4.9-9.1,3.3-3.1-1.6-4.5-6.1-2.8-9.3.7-1.3,1.8-2.4,2.7-3.6,2.2.2,4.4.5,6.6.7"/>
        <path class="cls-4" d="M123.7,134.9c1,.9,2.2,1.7,3,2.7,2.2,3,1.6,7-1.4,9.5-2.4,2-6.8,1.6-8.9-.8-2.6-2.9-2.5-7,.2-9.6.6-.7,1.4-1.2,2.2-1.8,1.6,0,3.3,0,4.9,0"/>
        <path class="cls-8" d="M99.5,110.7c.3-2.1-.7-4.4.9-6.4,2-2.3,5.1-3.4,7.7-2.7,2.8.9,4.6,3.2,4.7,6.5v2.5c-1.8,2.6-3.9,4.7-7.5,4.2-2.6-.3-4.4-1.9-5.8-4.1"/>
        <path class="cls-4" d="M92.9,135c.6.7,1.2,1.5,1.8,2.2,2.8,3.1,2.4,5.4.7,8.5-1.2,2.2-4.2,3.2-7.3,2.5-2.2-.5-5.2-3.4-5.1-5.9,0-3.3,1.7-6,4.8-7.4,1.7,0,3.4,0,5.1,0"/>
        <path class="cls-8" d="M211.4,112.4c2.8.3,5.5.6,8.3.8,3.5,4.9,3.3,8-.6,11-1.8,1.4-3.8,2-6.1,1-2.4-1.1-3.7-2.8-4-5.3-.6-2.9.6-5.3,2.4-7.5"/>
        <path class="cls-8" d="M117.1,112.4c2.8.3,5.6.5,8.3.8,1.1,1.8,2.9,3.2,2.6,5.8-.3,2.5-1,4.6-3.4,5.8-2.5,1.2-4.9,1.3-7.3-.8-2.1-1.9-3.5-4-2.6-6.9.6-1.6,1.6-3.1,2.4-4.7"/>
        <path class="cls-8" d="M148.8,112.4h7.4c1,1.6,2.2,3.1,2.8,4.9,1.1,3.1-1,6.7-4.5,8.1-2.7,1.1-7-.5-8-3.3-.8-2.5-.8-5.2.7-7.6.6-.8,1.1-1.4,1.6-2.1"/>
        <path class="cls-8" d="M162.1,110.7v-2.5c.2-4.1,2.8-6.7,6.7-6.7s6.5,2.6,6.7,6.7v2.5c-1.8,2.5-3.8,4.5-7.3,4.2-2.9-.2-4.4-2.2-6.1-4.2"/>
        <path class="cls-8" d="M86.2,112.4h7.5c1.7,1.9,2.9,3.8,2.6,6.6-.3,3.4-2.3,6.2-5.4,6.7-2.8.5-6-1.6-7.2-4.4-.8-1.9-1-3.6.3-5.4.8-1.2,1.5-2.3,2.2-3.5"/>
        <path class="cls-4" d="M217.2,134.9c4.1,2.3,5.5,5.2,4.3,8.8-1.3,3.8-5.3,5.8-8.8,4.3-3.2-1.3-4.9-5.7-3.4-9,.6-1.3,1.9-2.3,2.8-3.4,1.8-.2,3.4-.4,5.1-.7"/>
        <path class="cls-4" d="M112.9,134.1c-2.1,1-2.9,3.6-5.9,3.5-3.1-.1-5.6-.8-7.4-3.5v-2.9c0-3.9,2.6-6.8,6.1-7,3.2-.2,6.9,3.1,7.3,6.6,0,1-.1,2.2-.1,3.3"/>
        <path class="cls-8" d="M179.7,113.2c2.8-1.3,5.6-1.3,8.3,0,1.7,1.9,3,3.8,2.5,6.6-.4,2.7-2.2,5-4.8,5.7-2.9.8-5.1-.6-6.9-2.7-1.7-2-2.4-4.3-1-6.9.6-.9,1.3-1.8,1.9-2.7"/>
        <path class="cls-4" d="M143.8,133.2c-3.4,6-8.6,6-13.4,0,.1-3.7.7-7.1,4.9-8.4,3.9-1.2,7.9,1.2,8.4,5.1.2,1.1.1,2.2.1,3.3"/>
        <path class="cls-8" d="M130.5,110.7c-.4-3.1.7-5.6,3-7.7,1.9-1.8,4-1.9,6.1-1,2.3,1,4.4,2.4,4.3,5.4v3.3c-.8.9-1.5,2-2.5,2.8-2.7,2.2-6,1.9-8.5-.5-.9-.8-1.6-1.5-2.4-2.3"/>
        <path class="cls-4" d="M50.3,134.1c-2.1,1.1-3.1,3.7-6.2,3.5-3.4-.2-5.9-.9-7.1-4.3v-2.1c0-4.1,2.6-6.8,6.5-6.9,3-.1,6.5,3.1,6.8,6.5,0,1,0,2.2,0,3.3"/>
        <path class="cls-4" d="M81.2,133.2c-3.2,5.7-8.3,6.1-12.6.8-1.2-4.7.2-7.9,4-9.2,4-1.4,8.2,1.3,8.5,5.5.2,1,0,2,0,2.9"/>
        <path class="cls-8" d="M193.8,110.7c.3-2.2-.7-4.6,1.2-6.7,3.7-3.9,9.3-3,11.4,2,.8,1.9.6,3.7-.1,5.5-.5.4-1.1.8-1.6,1.2-4.2,3.6-7.9,2.9-10.9-2"/>
        <path class="cls-4" d="M172.1,137.4c-2.7-.3-5.5-.5-8.3-.8-.3-.7-.6-1.5-1-2.2-2.2-4.1.5-9.8,5.1-10.2,2.6-.2,4.8,1.1,6.3,3.3,1.3,1.9,1.9,4,.5,6.2-.7,1.3-1.7,2.5-2.6,3.7"/>
        <path class="cls-4" d="M238.1,132.4c-1.5,3.5-3.6,5.5-7.8,5.1-3-.3-3.8-2.7-5.6-4.3v-.4c.1-4.8,2.8-8.4,6.5-8.6,3.6-.2,6.6,3.5,6.9,8.2"/>
        <path class="cls-4" d="M185.6,147.8c-1.7-.6-2.5-3-3.6-4.3-1.4-1.7-3.1-3-4.9-4.3,1.8-2.6,4-4.7,7.6-4.3,4.9,1.6,6,3,5.9,7.4,0,1.9-1.4,5.2-3.6,5.6-.5.1-1,0-1.4,0"/>
        <path class="cls-4" d="M157.1,137.3c-3.3.4-6.6.9-9.9,1.3.8-1.2,1.6-2.4,2.4-3.6,2.7.1,5.8-1,7.5,2.3"/>
        <path class="cls-2" d="M334,278.7c0-3.5,2.7-6,6.3-6.2,4.1-.3,7.4,3.5,7.1,6.9-.3,3.8-2.9,6.5-6.7,6.5-4,.1-6.7-2.8-6.7-7.2"/>
        <path class="cls-2" d="M363.2,246.1c0,3.7-3,6.6-6.5,6.5-3.2-.1-7.1-3.8-6.8-6.7.5-4.4,2.7-6.8,7.3-6.6,3.7.1,6.1,2.8,6,6.8"/>
        <path class="cls-2" d="M363.2,268.7c0,3.9-3,6.6-7,6.4-4.1-.2-6-2.5-6.3-6.8-.3-3.3,3.8-6.7,7.2-6.6,3.6.2,6.2,3.1,6.1,7"/>
        <path class="cls-2" d="M340.6,250.1c3.8,0,6.7,2.4,6.8,5.6.1,4-2.6,6.9-6.4,6.9s-6.8-2.6-6.9-6.5c-.2-4.1,1.9-6,6.5-6"/>
        <path class="cls-8" d="M190.5,95.9c0,3.9-2.6,6.5-6.4,6.5s-7.1-2.8-7-7c.1-3.7,3.3-6.5,7.3-6.4,3.5,0,6.2,3.1,6.1,6.9"/>
        <path class="cls-8" d="M146.3,95.8c0-3.8,2.6-6.7,6.1-6.8s7.5,3.7,7.1,7.1c-.4,3.4-1.9,6.2-6.8,6.2-4.5.1-6.4-1.8-6.4-6.5"/>
        <path class="cls-8" d="M366.6,114.1c3.1-2.7,6.5-1.8,10-.8,3.5,5.1,2.7,9.7-2.2,11.9-2.5,1.2-4.6.5-6.5-1.2s-3.6-3.6-2.6-6.5c.4-1.1.8-2.3,1.3-3.4"/>
        <path class="cls-8" d="M398.3,114c3.1-2.6,6.5-1.7,10-.8.6,1.9,1.5,3.8,1.6,5.7.2,3.4-1.1,5-4.3,6.1-2.9,1-5.8.4-7.4-1.6-1.8-2-2.1-5.6-.8-8,.3-.5.6-.9.9-1.4"/>
        <path class="cls-4" d="M470,135.8c.6.8,1.2,1.5,1.6,2.4,1.5,3.1,1.7,6.5-1.9,9.1-2.2,1.7-6.5,1.3-8.7-.9-2.4-2.4-2.6-6.2-.4-9.1.5-.6,1.2-1.1,1.9-1.6,2.5-1.5,5-.7,7.5.1"/>
        <path class="cls-8" d="M381.6,111.5v-2.9c0-4.5,2.8-7.3,7.1-7.1,3.7.2,6.6,3.6,6.3,7.7-.1.8-.5,1.5-.8,2.3-3.7,4.4-6.9,4.7-11.2.9-.5-.3-1-.6-1.4-.9"/>
        <path class="cls-8" d="M413.3,112.4c0-2.2-1.5-4.3-.2-6.7,1.5-2.9,3.8-4.6,7.2-4.1,3.1.5,5.5,3.1,5.5,6.1s-.5,3.2-.8,4.8c-5.1,3.4-6.7,3.4-11.7-.1"/>
        <path class="cls-8" d="M341.5,125.7c-5.2-.3-7.6-2.6-7.5-7.3.1-3.3,2.6-6.1,6-6,1.9,0,3.8.5,5.7.8,0,.3,0,.6.1.8,3.3,5.7,1.6,8.8-4.3,11.7"/>
        <path class="cls-8" d="M429.2,114.1c3.6-2.4,7.2-2.4,10.8,0,.3,2.4,2.2,4.4.9,7.1-1.3,2.8-4.4,5-7.2,4.5-3-.5-6.3-4-6.1-7,.1-1.5,1-3.1,1.6-4.6"/>
        <path class="cls-4" d="M438.3,135.8c.7.9,1.5,1.6,2,2.6,1.4,2.1.8,6.5-.9,8.4-1.6,1.7-5.6,2.2-8.1.9-2.3-1.1-3.5-4.4-3.3-7.2.2-2.2,1.9-3.1,2.8-4.7,2.5-1.1,5-1.1,7.5,0"/>
        <path class="cls-4" d="M394.9,134.1c-1.8,1.1-3.4,2.8-5.3,3.3-3.2.8-6.1-.2-8-3.2v-2.9c.1-3.9,2.5-6.8,6.1-7,3.2-.2,6.9,3.1,7.3,6.6,0,.9-.1,2.1-.1,3.2"/>
        <path class="cls-4" d="M457.5,134.1c-1.8,1.1-3.4,2.8-5.3,3.3-3.2.8-6.1-.2-8-3.2v-2.9c.1-4,2.6-6.8,6.1-7,3.2-.2,6.9,3.1,7.3,6.6,0,.9-.1,2.1-.1,3.2"/>
        <path class="cls-8" d="M350.8,112.4c.2-2.1-1.5-4-.3-6.4,1.6-3.2,3.9-5,7.4-4.4,3.1.5,5.4,3.2,5.4,6.4s-.5,2.9-.8,4.4c-5.1,3.5-6.8,3.5-11.7,0"/>
        <path class="cls-4" d="M375.8,135.8c.8,1.5,2.1,2.9,2.4,4.6.6,3.5-1.3,6.9-3.9,7.8-2.4.9-6.2-.2-7.6-2.1-2.5-3.5-2.3-6.2.7-9.5,2.6-2.4,5.5-1.8,8.4-.8"/>
        <path class="cls-4" d="M425.8,134.1c-4.4,5.3-9.9,4.9-13.3-.8.3-1.6.3-3.3.9-4.8.9-2.6,4-4.5,6.4-4.1,3.8.6,5.9,2.6,6.1,6,0,1.2-.1,2.4-.1,3.7"/>
        <path class="cls-4" d="M363.2,134.1c-2,.8-2.7,3.3-5.5,3.5-3.4.2-5.8-1-7.9-3.5-.1-2.6-.2-5.2,1.9-7.3,2.1-2.2,4.4-2.8,7.3-1.8,3,1.1,4,2.5,4.2,5.8.1,1.1,0,2.2,0,3.3"/>
        <path class="cls-4" d="M409.8,144.4c-2.4-.6-4.7-1.2-7-1.9q-3.7-1-5,2.6c-1.6-2.4-1.7-5-.1-7.4.7-1,1.5-1.9,2.3-2.8h6.6c2.5,2.7,4.2,5.6,3.2,9.5"/>
        <path class="cls-8" d="M334.9,91.4c3.9,0,7.7.1,11.6.1.3.9.7,1.8.8,2.7.4,2.8-.3,5.2-2.7,6.9-1.9,1.4-5.8,1.6-7.4.4-2.4-1.8-3.8-4-3.1-7.1.2-.9.5-1.9.8-3"/>
        <path class="cls-2" d="M472.6,278.8c0,4.4-2.6,7.2-6.7,7.2s-6.5-2.7-6.6-6.5c-.1-4,2.7-6.9,6.6-6.9s6.6,2.6,6.7,6.2"/>
        <path class="cls-2" d="M488.4,291.9c0,3.9-3,6.7-6.8,6.6-3-.1-6.5-4-6.6-6.9-.1-3.4,3.3-6.7,7.1-6.5,4.5.2,6.3,2,6.3,6.8"/>
        <path class="cls-2" d="M488.4,268.6c0,3.9-2.9,6.6-6.8,6.5-3.6-.1-6.4-2.7-6.5-6.2-.1-3.3,3.7-7.5,6.8-7.1,3.6.5,7.3,2.5,6.5,6.8"/>
        <path class="cls-5" d="M89.5,157.5c3.2.4,5.6,1.8,6.8,5,1.1,2.8.3,5-1.7,7-2.4,2.4-4.2,2.7-7.5,1.3-2.8-1.1-4.2-3.6-4.1-6.1,0-3,2.1-5.5,4.8-7.2h1.7"/>
        <path class="cls-1" d="M112.9,155.8c-.9,3.4-3.4,4.9-6.7,4.9s-5.8-1.5-6.7-4.9c0-2.6-.3-5.2,2.4-7,2.2-1.4,4.5-1.9,7-.8,2.5,1.1,3.8,3,4,5.7v2.1"/>
        <path class="cls-5" d="M122.9,157.5c1,.9,2.1,1.7,3.1,2.6,2.7,2.6,2.7,7,.1,9.5-2.3,2.3-6.1,2.1-8.9.1-4.2-3-3-9,.7-11,.9-.4,1.7-.9,2.6-1.3.7,0,1.6,0,2.4,0"/>
        <path class="cls-1" d="M140.4,148.2c.8,3.4,1.6,6.7,2.4,10.1-1.5.8-3,2.1-4.6,2.4-3.8.6-6-1.9-7.6-4.9.2-1.2.2-2.5.6-3.6,1.6-4.7,4.1-5.7,9.2-4"/>
        <path class="cls-16" d="M116.3,182.5c3.8-2.6,7.4-2.2,10.8.8.3,1.7.6,3.3.9,4.9-.7,3.9-2.8,5.8-6.4,5.9-4.4.1-6.2-1.6-7-6.7.5-1.6,1.1-3.2,1.7-4.9"/>
        <path class="cls-5" d="M100.4,181.6c-.3-1.3-.8-2.6-.9-4-.3-4.3,1.1-6.1,5.5-7.2,2.8-.7,5.7.9,7.1,4,.4,1,.4,2.3.4,3.5s-.4,2.4-.6,3.6c-.6.2-1.4.3-1.9.7-2.4,2.1-4.9,2.2-7.5.4-.5-.3-1.3-.6-2.1-1"/>
        <path class="cls-5" d="M132.1,181.6c-.6-1.2-1.4-2.3-1.6-3.5-.6-3.9,3.1-8,7-8.1,3.7,0,6.5,3,6.3,7.2-.1,1.5-.6,3-.9,4.4-3.6,2.1-7.2,2.9-10.8,0"/>
        <path class="cls-16" d="M82.9,187.5c.6-1.6,1.1-3.3,1.7-4.9.6-.2,1.3-.4,1.9-.7,2.3-1.4,4.6-1.4,6.9,0,.6.3,1.3.4,1.9.7.3,1.6.6,3.3.9,4.9.5,3.4-1.9,5.1-4.2,6.7h-5c-2.8-1.4-2.9-4.4-4.1-6.7"/>
        <path class="cls-20" d="M132.1,181.6c3.6,2.8,7.2,2,10.8,0,1.4.6,2.8,1.1,4.2,1.7-.3,1.9-.6,3.9-.9,5.8-2.6,0-5.2.1-7.8,0-3.5-.2-7-.5-10.5-.8-.3-1.6-.6-3.3-.9-4.9,1.5-1.1,3.1-2.2,5.1-1.8"/>
        <path class="cls-20" d="M96.3,187.5c-.3-1.6-.6-3.3-1-4.9,1.7-.3,3.4-.6,5.1-.9.7.4,1.5.6,2.2,1.1,2.6,1.8,5.1,1.7,7.5-.4.5-.4,1.2-.5,1.8-.7,1.4.3,2.8.6,4.3.9-.6,1.7-1.1,3.3-1.7,4.9-2.7-.3-5.4-.8-8.1-.8-3.3,0-6.7.5-10.1.8"/>
        <path class="cls-12" d="M146.2,189.1c.3-1.9.6-3.9.9-5.8.3-.3.6-.7,1-1.1.6,2.4,1.2,4.8,1.8,7.1,1,4,.9,3.9,4.5,2.1,1.3-.7,2.7-1.2,4.1-1.8-.1.6.1,1.5-.2,1.9-1.5,2.2-3.8,3.5-6.4,3.1-3.1-.3-5.3-2.1-5.7-5.5"/>
        <path class="cls-4" d="M277.7,148.3c-3.6,0-6.2-2.6-6.3-6.2,0-4.4,2.6-7.2,6.7-7.2s6.5,2.8,6.6,6.9c.2,3.8-2.8,6.5-7,6.5"/>
        <path class="cls-5" d="M468.4,158.2c1.9,1.5,4.1,2.7,4.2,5.7.3,4.9-2.3,6.5-5.5,7.6-2.3.8-6.6-1.7-7.4-4-1.2-3.6-.8-6.4,2.9-8.8.6-.4,1.1-.8,1.6-1.2,1.4.3,2.8.5,4.2.7"/>
        <path class="cls-1" d="M457.5,156.6c-3.7,4.7-6.8,5.5-11.1,2.7-.9-.6-1.5-1.8-2.3-2.7v-2.5c0-3.6,2.4-6.3,5.8-6.7,3.5-.4,6,1.2,7,4.8.4,1.4.4,2.9.6,4.4"/>
        <path class="cls-5" d="M430.7,169.8c.9-3.8,1.5-7.6.3-11.5,1.3-.3,2.7-.6,4-.9h1.6c1.3,1.5,3,2.8,3.9,4.5,1.3,2.4,1.1,4.9-.9,7.1-2.1,2.2-4.3,3.4-7.3,1.8-.5-.3-1.1-.6-1.6-1"/>
        <path class="cls-11" d="M435,157.5c-1.3.3-2.7.6-4,.9-.2-.2-.3-.4-.2-.7,1-.5,1.9-1.2,3-1.5.2-.2.8.8,1.2,1.3"/>
        <path class="cls-4" d="M526,134.9c2.2.3,4.4.6,6.6.9.6.8,1.2,1.5,1.6,2.4,1.9,4.2,1.2,6.9-2.2,9.4-2.3,1.7-6.7.9-8.6-1.5-2.5-3-2.2-7,.7-9.7.6-.5,1.3-1,1.9-1.5"/>
        <path class="cls-4" d="M538.5,134.1c-1.6-4.6.2-8,4.7-9.4,3.7-1.1,7.5,1.2,8.3,5.5.3,1.2-.3,2.6-.5,3.9-4,4.9-8.6,4.9-12.5,0"/>
        <path class="cls-5" d="M532.6,159.1c4.2,4.3,3.4,9.4-1.6,11.7-3,1.4-6.1.3-8.1-2.8-1.7-2.7-1.4-6,.9-8.2.5-.5.9-1,1.4-1.5,2.5-.6,5.1-.6,7.4.8"/>
        <path class="cls-1" d="M520.1,156.6c-3.3,4.3-6.5,5.4-10,3.3-1.2-.7-2.1-1.7-3.2-2.5,0-1.1,0-2.2,0-3.3,0-4.1,2.8-6.7,6.7-6.7s6.5,2.6,6.7,6.7c-.2.9-.2,1.7-.2,2.5"/>
        <path class="cls-4" d="M506.7,133.2c0-2.4-.4-5,2.1-6.8,1.9-1.4,3.5-2.9,6.3-1.7,2.9,1.2,4.5,3.1,5,6,.2,1.1,0,2.2,0,3.3-2,.8-2.7,3.2-5.3,3.4-3.8.4-6.2-1.1-8.1-4.2"/>
        <path class="cls-16" d="M440.9,188.3c.2,2.7-1.5,4.4-3.4,5.9h-5.8c-2.4-1.6-3.7-3.7-3.4-6.7-.4-2,.7-3.5,1.7-5,3.6-2.7,6.9-1.8,10,.9.3,1.6.6,3.2.9,4.9"/>
        <path class="cls-5" d="M445,181.6c-.3-1.6-.8-3.2-.8-4.8-.1-3.5,1.5-5.3,5.2-6.5,2.1-.7,5,.3,6.4,2.7,1.6,2.8,1.2,5.8,0,8.7-3.6,2.8-7.2,2-10.8,0"/>
        <path class="cls-20" d="M445,181.6c3.6,2.1,7.2,2.8,10.8,0,1.7.3,3.3.6,5,.9-.6,1.9-1.2,3.9-1.7,5.8h-18.3c-.3-1.6-.6-3.3-.9-5,1.8-.5,3.5-1.1,5.1-1.7"/>
        <path class="cls-20" d="M430,182.5c-1,1.5-2.1,3-1.7,5-1.6.1-3.3,0-4.9.5-3.6,1-6.8-.2-10.1-1.2l6.5-3.4c1.7-.5,3.4-1.1,5.2-1.6,1.6.1,3.3.4,5,.7"/>
        <path class="cls-4" d="M425,181.6c-1.7.5-3.4,1.1-5.2,1.6,1.7-1.4,3.4-2.8,5.1-4.2,0,.9.1,1.8.1,2.6"/>
        <path class="cls-4" d="M424.9,179.1c.3-.3.6-.7.8-1.1-.3.4-.5.7-.8,1.1"/>
        <path class="cls-16" d="M490.9,188.3c.3-1.7.6-3.3.9-5,3.3-3,5.8-3.2,9.5-1,.7.4,1.4.7,2.2,1.1,0,1.6,0,3.3,0,4.9.3,2.8-1.1,4.6-3.4,5.9h-5.8c-2.1-1.5-3.7-3.2-3.5-5.9"/>
        <path class="cls-5" d="M507.6,180.8c-1.9-5.3-.8-8.1,3.6-10.2,2.6-1.2,4.6-.1,6.4,1.4,1.8,1.5,3.2,3.5,2.2,6.1-.4,1.2-.9,2.3-1.3,3.5-4,2.7-6.7,2.5-10.9-.8"/>
        <path class="cls-20" d="M507.6,180.8c4.2,3.3,6.9,3.5,10.9.8,1.4.6,2.8,1.1,4.2,1.7-.3,1.9-.6,3.9-.9,5.8-6.1-.3-12.2-.6-18.3-.9,0-1.6,0-3.3,0-4.9.8-.3,1.6-.8,2.4-.9,1.2,0,1.8-.4,1.8-1.6"/>
        <path class="cls-1" d="M207.2,154.1c-.4,1.1-.7,2.4-1.4,3.3-1.7,2.3-4,3.9-7,3.3-2.7-.5-5.3-3.6-5.8-6.6,1.5-4.9,3.7-6.8,7.5-6.7,3.1.1,5.3,2.3,6.7,6.7"/>
        <path class="cls-20" d="M163.8,186.5c1.7-1.1,3.3-2.2,5-3.3,1.7-.3,3.4-.6,5-.8,1.4.3,2.8.6,4.2.9-.3,1.6-.6,3.3-.9,4.9-3,.3-6-.7-9.1-.1-1.3.3-2.8-1-4.2-1.6"/>
        <path class="cls-4" d="M181.6,171.6c1.8-4.2,3.7-8.3,5.5-12.5,2.8.3,3.3,2.5,3.5,4.7.2,2.5,0,5.1-2.7,6.2-2.1.8-4.3,1.1-6.3,1.6"/>
        <path class="cls-4" d="M173.8,182.5c-1.7.3-3.4.6-5,.8,1.9-1.5,3.9-2.9,5.8-4.4-.3,1.2-.6,2.4-.8,3.6"/>
        <path class="cls-12" d="M147.1,206.7c-1.5-.6-3.8,0-4.2-2.5.3-2.5.6-5,.8-7.5,6.4-.3,12.8-.6,19.2-.8-1.1,2.8-1.1,5.6,0,8.3-1.7.6-3.3,1.1-5,1.7-1.9-1.1-3.9-1.8-6.2-1.8s-3.7.6-4.6,2.6"/>
        <path class="cls-22" d="M487.6,218.4c2.1,0,4.1,0,6.2-.1.3,0,.8-.3.9-.6,0-.2,0-.8-.4-.9-3.2-1.6-3.7-4.5-3.4-7.6.4-2.8,1.9-4.6,4.7-4.9,2.8-.4,5.5.1,7.4,2.6.4.5.8,1,1.2,1.6,0,2.5,0,4.8-1.9,6.9-1.2,1.3-.6,2,1.3,2.3,1.3.2,2.7.6,4,.8-.2,2.8-1.8,5.5-.2,8.4,0,.2-.8,1.5-1.3,1.5-1.6,0-3.3-.1-4.7-.7-2.7-1.2-5.3-1.6-7.7.2-2.1,1.5-3.6-.8-5.5-.3,0-.6-.2-1.2,0-1.8.4-2.7.7-5.1-.5-7.4"/>
        <path class="cls-22" d="M365.7,213.3c-1.5-1.9-.5-3.9,0-5.8,4-4.8,8.5-4.8,12.5,0,.5,2.2.5,4.4,0,6.7-.3.1-.5.2-.7.4-5,4.2-7.6,3.9-11.8-1.3"/>
        <path class="cls-22" d="M406.6,204.2c2.6,2.5,4.1,5.4,3.3,9.2-.7.8-1.3,1.7-2.2,2.3-3.5,2.5-7.4,2.2-11.2-2.3.3-2.5.6-5,.8-7.5,2-2.1,4.6-1.7,7.1-1.7h2.2"/>
        <path class="cls-14" d="M397.5,205.9c-.3,2.5-.6,5-.8,7.5-1.5.3-2.9.8-4.3.8-4.7.1-9.3,0-14,0,.5-2.2.5-4.5,0-6.7,2.2-.3,4.5-.6,6.7-.8,3,.1,6.1.2,8.3-2.4.1-.2.5-.1.8-.1,1,.5,2.1,1.1,3.3,1.7"/>
        <path class="cls-12" d="M211.4,194.2c2.8-.3,5.5-.6,8.3-.8,2.5.3,5,.6,7.6.9-1.8,2.2-3,4.6-2.6,7.5h-18.3c-.3-2.2-.6-4.4-.9-6.6,1.7-1.9,4-.7,5.9-1"/>
        <path class="cls-22" d="M222.2,210c0,3.8-2.3,6.3-5.6,7.3-3.3.9-5.9-1.1-7.7-3.9v-3.4c.7-4.1,1.8-5.5,5-5.8,4.1-.5,6.3.8,7.6,4.4.2.4.5.9.7,1.4"/>
        <path class="cls-18" d="M205.5,195.1c.3,2.2.6,4.4.9,6.6-1.2,3.6-4.1,5.5-7.7,5-2.6-.4-4.7-3.3-4.9-6.7.6-1.9,1.2-3.8,1.8-5.8,3.4-1.5,6.7-1.1,9.9.9"/>
        <path class="cls-14" d="M208.8,210v3.4c-6.1,1.3-12.2,1.3-18.3,0v-4.2c6.1.2,12.2.5,18.3.8"/>
        <path class="cls-18" d="M163,204.2c-1.1-2.8-1.1-5.6,0-8.3.7-.6,1.4-1.3,2.2-1.7,3.6-1.8,6.7-.7,9.5,1.7.3,2.5.5,5,.8,7.5-.5.2-1.1.3-1.5.6-3.3,3.4-5.8,3.8-9.7,1.2-.4-.4-.9-.7-1.3-1"/>
        <path class="cls-17" d="M413.3,186.7c3.3,1,6.5,2.3,10.1,1.2,1.5-.4,3.2-.3,4.9-.5-.3,3,1,5.1,3.4,6.7-1.7,2.6-4.4,1.4-6.7,1.7-3.4-3.4-7-3.2-10.8-.8-2.5-.3-5-.6-7.6-.9,1.2-2,3.7-3.4,3.2-6.3,1.2-.3,2.4-.7,3.5-1.1"/>
        <path class="cls-18" d="M414.2,195c3.8-2.4,7.4-2.5,10.8.8.3,2.5.6,5,.8,7.5-2.2,1.1-3.4,3.8-6.7,3.5-2.8-.2-3.7-2.7-5.8-3.5-1.7-3,0-5.6.9-8.3"/>
        <path class="cls-12" d="M414.2,195c-.9,2.7-2.6,5.3-.9,8.3-2.2.3-4.4.6-6.7.9h-2.1c-2.5,0-5.1-.4-7.1,1.7-1.1-.6-2.2-1.1-3.4-1.7-.3-3-.6-6.1-.8-9.1,2.2-.3,4.5-.6,6.7-.9h6.6c2.6.2,5.2.5,7.7.8"/>
        <path class="cls-17" d="M174.6,195.8c-2.8-2.4-5.9-3.5-9.5-1.7-.8.4-1.4,1.1-2.2,1.7-6.4.3-12.8.6-19.2.8-.4-.3-.9-.6-1.3-.9-4.1-3.8-7.4-3.5-11.2.9h-18.4c-.7-.6-1.5-1.2-2.2-1.8-3.2-2.4-7-2.1-10.3.9h-6.6c-1.2,0-1.8-.5-1.8-1.7,2.3-1.7,4.7-3.3,4.2-6.7,3.4-.3,6.8-.7,10.2-.7s5.4.5,8.1.8c.8,5.1,2.5,6.8,7,6.7,3.6,0,5.7-2,6.4-5.9,3.5.3,7,.6,10.5.8,2.6.1,5.2,0,7.8,0,.4,3.4,2.6,5.2,5.7,5.7,2.6.4,4.8-1,6.3-3.1.3-.5.2-1.3.2-1.9h.1c.3-.3.6-.6,1-.8,1.4-.8,2.8-1.6,4.2-2.4,1.4.6,3,1.9,4.2,1.6,3.1-.6,6.1.4,9.1.1l2.1,4.2,1.2,2.4c-1.4,0-2.7,1.2-4.3.1,0,0-.7.7-1.3.9"/>
        <path class="cls-18" d="M100.4,195.8c3.2-3,7.1-3.4,10.3-.9.8.6,1.5,1.2,2.2,1.8.3,3.3,0,6.5-2.5,9.1-3.7,1.5-7,1-10-1.7-1.3-2.7-1.3-5.5,0-8.3"/>
        <path class="cls-18" d="M349.9,199.2c1.9-5.9,6.1-7.5,11.2-4.3.7.4,1.4.7,2.1,1v4.1c.3,3-2,4.6-3.4,6.7h-3.3c-4-.2-5.5-1.7-5.9-5.8,0-.6-.4-1.2-.7-1.7"/>
        <path class="cls-16" d="M359.9,206.7c1.3-2.1,3.7-3.7,3.4-6.7h18.3c-.9,3.3,2.2,4.5,3.4,6.7-2.2.3-4.5.6-6.7.8-4-4.8-8.5-4.8-12.5,0-2-.3-4-.5-5.9-.8"/>
        <path class="cls-18" d="M520.1,202.5c-1.6,1.9-2.9,4.1-5.8,4.2h-2.5c-2.5-.9-4.1-2.6-5-5,.3-1.9.6-3.9.9-5.8,5.3-3.7,8-3.5,11.7.8.2,1.9.4,3.9.7,5.8"/>
        <path class="cls-12" d="M507.6,195.8c-.3,1.9-.6,3.9-.9,5.8-3.1.3-6.2.7-9.4.7s-6-.5-9-.7c-.3-1.9-.6-3.9-.9-5.8,2.2-.6,4.5-1.1,6.7-1.7h5.8c0,1.2.6,1.7,1.8,1.7h5.9"/>
        <path class="cls-17" d="M315.7,188.3h18.3c.6,1.7,1.2,3.4,1.7,5-2,.3-4,.6-5.9.9-4-1.8-7.5-.6-10.8,1.7-.7-.3-1.3-.6-2-.9-1.3-.6-2.6-1.1-3.9-1.7.9-1.7,3.1-2.7,2.6-5"/>
        <path class="cls-12" d="M381.6,200h-18.3c0-1.4,0-2.7-.1-4.1,1.7-.6,3.4-1.2,5.1-1.8,2.8-.3,5.5-.6,8.3-.8,1,.3,2,.6,3,.8,1,.3,1.9.6,2.9.9-.4,1.7-.6,3.3-.9,5"/>
        <path class="cls-18" d="M319,195.9c3.3-2.3,6.8-3.5,10.8-1.7.3.7.5,1.7,1.1,2.1,1.5,1.2,1.6,2.8,1.5,4.5-.4,2.7-2.6,4-4.2,5.8-3.7.6-6.6-.9-9.2-3.3-.8-2.4.1-4.9,0-7.4"/>
        <path class="cls-12" d="M319,195.9c0,2.5-.8,5,0,7.4-.4.5-.7,1.3-1.3,1.6-.9.5-1.9.6-2.9.9-4.2-3.2-7.2-3.1-10.8.3-.3.3-.7.3-1.1.4.7-4.4,1.4-8.8,2.1-13.3,2.7.8,5.5,1.6,8.2,0,1.3.6,2.6,1.1,3.8,1.7.7.4,1.4.7,2,1"/>
        <path class="cls-17" d="M227.3,194.2c-2.5-.3-5-.6-7.6-.9.9-1.9,1.7-3.9,2.5-5.8,2.2-.2,4.3-.6,6.5-.7,1.3-.1,2.7.4,4,.5,2.3.1,4.7.1,7,.2,0,.9.1,1.8.1,2.7-.9,1.9-1.8,3.7-2.7,5.6-2.9-2.9-6.2-3.3-9.8-1.6"/>
        <path class="cls-16" d="M110.4,205.8c2.4-2.6,2.8-5.8,2.5-9.1h18.4c-1.4,3.4-.1,6.3,1.7,9.2-1.9.3-3.9.6-5.8.8-3.9-3.6-7.8-3.6-11.7,0-1.8-.3-3.4-.6-5.1-.9"/>
        <path class="cls-18" d="M132.9,205.8c-1.8-2.8-3.1-5.8-1.7-9.2,3.7-4.4,7.1-4.7,11.2-.9.4.4.9.6,1.3.9-.3,2.5-.6,5-.8,7.5-2.9,2.7-6.3,3.3-10,1.7"/>
        <path class="cls-17" d="M382.4,195.1c-1-.3-1.9-.6-2.9-.9s-2-.6-3-.9c.6-2,1.2-3.9,1.7-5.9,3.4.4,7-.8,10.2,1-.3,1.7-.8,3.4,2.2,2.7,2.1-.5,4.4-.4,6.6-.6.9,1.2,1.8,2.4,2.6,3.6-2.2.3-4.5.6-6.7.9-3.5-2.1-7.1-2.4-10.7,0"/>
        <path class="cls-16" d="M400,194.2c-.9-1.2-1.8-2.4-2.6-3.6,4.2-.9,8.3-1.8,12.5-2.7.4,2.9-2,4.3-3.2,6.3h-6.7Z"/>
        <path class="cls-12" d="M159.6,189c-.3.3-.6.6-1,.8.3-.3.6-.6,1-.8"/>
        <path class="cls-18" d="M382.4,195.1c3.6-2.4,7.2-2.1,10.8,0,.3,3,.6,6.1.9,9.1-.3,0-.7-.1-.8.1-2.3,2.6-5.3,2.5-8.3,2.4-1.2-2.2-4.3-3.4-3.4-6.7.3-1.7.5-3.3.8-4.9"/>
        <path class="cls-13" d="M247.8,180.4c18.3-17.8,42.6-21.7,53.8,1.2,20,40.8-52.1,81-67,35.8-4.2-12.8,2.6-26.8,13.2-37M288.9,197.7c.5-7.4-5.1-14.1-12.8-14.8-12.8-1.1-25.7,10.7-25.6,23.6,0,8.5,6.3,14.7,14.8,14.8,11.8.1,23.6-11.7,23.6-23.6"/>
        <path class="cls-13" d="M187.2,153.3c.8,6.5-2.5,12.7-5.8,18-2.5,4.1-6.1,7.3-9.9,10.1-3.1,2.3-19.4,17.8-21.5,8-.5-2.4-1.2-4.8-1.8-7.1-1.8-8-3.6-16-5.3-24-.8-3.4-1.6-6.7-2.4-10.1-.4-1.9-.6-3.8-1.1-5.6-.5-1.7-.3-2.5,1.6-2.7,2.1-.2,4.2-.9,6.3-1.3,3.3-.4,6.6-.9,9.9-1.3,2.2-.2,4.5-.4,6.7-.6,2.8.3,5.5.5,8.3.8,1.7.6,3.3,1.2,5,1.7,3.5,2.4,6.2,5.5,8.4,9.1.8,1.6,1.4,3.3,1.6,5M174.4,158c-.1-4.7-2.6-7.9-6.3-8.4-2.7-.4-5.5-.1-8.2.2-5.2.6-5.2.7-4.1,5.9,1.1,4.7,2.1,9.4,3.2,14.2.2,1,.3,2.4,2.1,1.5,3.9-2.1,8-4.1,10.6-7.8,1.4-1.9,2.1-4.4,2.7-5.6"/>
      </g>
    </g>
  </g>
</svg>