<?xml version="1.0" encoding="UTF-8"?>
<svg xmlns="http://www.w3.org/2000/svg" version="1.1" viewBox="0 0 67 40">
  <defs>
    <style>
      .cls-1 {
        fill: #f0d8bc;
      }

      .cls-2 {
        fill: #fff;
      }

      .cls-3 {
        fill: #dd3555;
      }
    </style>
  </defs>
  <!-- Generator: Adobe Illustrator 28.6.0, SVG Export Plug-In . SVG Version: 1.2.0 Build 709)  -->
  <g>
    <g id="Livello_1">
      <g id="logogram">
        <path class="cls-3" d="M.2,20C.2,9,9.2,0,20.2,0h26.2C57.5,0,66.5,9,66.5,20v20H20.2C9.2,40,.2,31,.2,20Z"/>
        <path class="cls-1" d="M46.5,7.5h-26.2c-6.9,0-12.5,5.6-12.5,12.5s5.6,12.5,12.5,12.5h26.2c6.9,0,12.5-5.6,12.5-12.5s-5.6-12.5-12.5-12.5Z"/>
        <path d="M20.2,26.3c3.5,0,6.2-2.8,6.2-6.2s-2.8-6.2-6.2-6.2-6.2,2.8-6.2,6.2,2.8,6.2,6.2,6.2Z"/>
        <path class="cls-2" d="M17.8,18.8c.7,0,1.2-.6,1.2-1.2s-.6-1.2-1.2-1.2-1.2.6-1.2,1.2.6,1.2,1.2,1.2Z"/>
        <path d="M47.8,26.3c3.5,0,6.2-2.8,6.2-6.2s-2.8-6.2-6.2-6.2-6.2,2.8-6.2,6.2,2.8,6.2,6.2,6.2Z"/>
        <path class="cls-2" d="M45.2,18.8c.7,0,1.2-.6,1.2-1.2s-.6-1.2-1.2-1.2-1.2.6-1.2,1.2.6,1.2,1.2,1.2Z"/>
      </g>
    </g>
  </g>
</svg>